<?xml version="1.0" encoding="UTF-8" ?>
<!DOCTYPE svg PUBLIC "-//W3C//DTD SVG 1.1//EN" "http://www.w3.org/Graphics/SVG/1.1/DTD/svg11.dtd">
<svg width="685pt" height="685pt" viewBox="0 0 685 685" version="1.1" xmlns="http://www.w3.org/2000/svg">
<g id="#fdfdfdff">
<path fill="#fdfdfd" opacity="1.00" d=" M 32.39 118.42 C 201.90 101.79 371.33 84.28 540.86 67.89 C 539.31 140.23 546.83 212.42 558.23 283.77 C 573.86 373.14 600.14 462.88 651.09 538.95 C 487.15 565.08 323.25 591.71 159.20 617.02 C 66.90 468.89 32.72 291.04 32.39 118.42 M 442.72 99.42 C 423.38 103.64 428.64 140.75 450.02 134.69 C 467.81 129.18 462.79 95.01 442.72 99.42 M 130.71 134.47 C 110.11 138.00 114.58 177.40 137.22 171.59 C 157.23 167.15 152.25 130.53 130.71 134.47 M 417.16 163.77 C 344.16 175.83 270.53 184.65 196.67 189.51 C 180.30 190.93 176.07 215.48 189.01 224.07 C 197.20 229.23 207.30 226.37 216.34 226.50 C 278.70 222.40 340.85 214.51 402.33 203.31 C 411.76 201.00 422.25 200.42 429.96 193.87 C 439.27 183.87 432.31 162.42 417.16 163.77 M 503.56 235.54 C 369.04 252.30 234.49 268.97 99.95 285.66 C 94.10 286.14 89.32 291.98 91.20 297.93 C 103.87 393.81 132.28 489.17 184.98 570.97 C 189.01 579.30 199.18 574.94 206.33 574.51 C 336.51 553.53 466.84 533.40 596.97 512.17 C 604.21 511.50 605.27 502.37 601.92 497.23 C 553.58 420.93 533.67 330.94 520.58 242.71 C 519.83 234.72 509.69 234.18 503.56 235.54 Z" />
<path fill="#fdfdfd" opacity="1.00" d=" M 464.10 262.02 C 477.07 260.51 490.08 259.30 502.95 257.03 C 505.26 272.01 507.58 286.98 510.12 301.92 C 497.47 303.65 484.82 305.28 472.17 306.93 C 469.55 291.95 466.80 276.99 464.10 262.02 Z" />
<path fill="#fdfdfd" opacity="1.00" d=" M 405.28 269.24 C 418.16 267.52 431.04 265.85 443.90 263.95 C 447.50 279.11 450.66 294.39 453.07 309.79 C 439.77 311.49 426.48 313.26 413.16 314.86 C 410.88 299.59 407.97 284.43 405.28 269.24 Z" />
<path fill="#fdfdfd" opacity="1.00" d=" M 346.86 277.09 C 359.68 275.35 372.92 272.46 385.58 271.75 C 388.46 286.97 392.00 302.15 393.85 317.55 C 380.86 318.80 367.96 320.75 355.10 322.95 C 352.07 307.72 349.03 292.48 346.86 277.09 Z" />
<path fill="#fdfdfd" opacity="1.00" d=" M 287.92 283.20 C 300.87 281.53 313.82 279.90 326.77 278.25 C 329.04 294.06 333.36 309.55 334.76 325.48 C 321.89 326.75 309.13 329.02 296.22 329.90 C 293.30 314.36 290.02 298.88 287.92 283.20 Z" />
<path fill="#fdfdfd" opacity="1.00" d=" M 228.92 291.04 C 241.90 289.17 254.93 287.66 267.93 285.94 C 271.19 301.44 274.17 317.04 275.93 332.80 C 263.04 334.55 250.25 337.11 237.26 338.02 C 234.90 322.29 231.78 306.69 228.92 291.04 Z" />
<path fill="#fdfdfd" opacity="1.00" d=" M 170.13 297.46 C 183.18 296.36 196.25 295.17 209.18 293.02 C 211.11 308.86 215.05 324.33 217.95 339.99 C 205.13 342.70 191.94 343.23 179.10 345.96 C 176.31 329.76 172.12 313.78 170.13 297.46 Z" />
<path fill="#fdfdfd" opacity="1.00" d=" M 111.92 305.23 C 124.90 303.67 137.78 301.36 150.79 300.11 C 153.45 316.33 157.26 332.37 159.04 348.73 C 146.09 350.06 133.22 352.12 120.22 353.00 C 117.71 337.03 114.13 321.25 111.92 305.23 Z" />
<path fill="#fdfdfd" opacity="1.00" d=" M 478.07 327.49 C 490.05 326.15 502.00 324.55 513.94 322.96 C 517.31 337.78 522.01 352.36 523.90 367.49 C 512.22 369.08 500.56 370.80 489.00 373.10 C 484.69 358.08 479.87 343.06 478.07 327.49 Z" />
<path fill="#fdfdfd" opacity="1.00" d=" M 418.91 335.22 C 431.64 333.66 444.39 332.11 457.03 329.92 C 461.45 345.01 465.59 360.22 468.83 375.62 C 456.00 376.90 443.40 380.01 430.50 380.57 C 426.64 365.45 421.81 350.58 418.91 335.22 Z" />
<path fill="#fdfdfd" opacity="1.00" d=" M 360.14 343.14 C 373.01 341.27 385.84 339.04 398.80 337.88 C 402.43 353.30 407.33 368.39 411.08 383.77 C 398.11 385.67 385.18 387.92 372.11 389.04 C 367.86 373.81 363.82 358.52 360.14 343.14 Z" />
<path fill="#fdfdfd" opacity="1.00" d=" M 302.06 350.34 C 314.74 349.19 327.29 346.95 339.98 345.80 C 343.96 361.10 349.07 376.15 352.07 391.69 C 339.38 393.19 326.74 395.05 314.13 397.10 C 308.18 382.11 304.13 366.33 302.06 350.34 Z" />
<path fill="#fdfdfd" opacity="1.00" d=" M 242.85 359.18 C 255.54 356.65 268.48 355.56 281.16 352.94 C 284.85 368.60 289.07 384.13 293.21 399.68 C 280.26 400.96 267.54 404.08 254.52 404.62 C 250.75 389.44 245.22 374.70 242.85 359.18 Z" />
<path fill="#fdfdfd" opacity="1.00" d=" M 184.00 367.02 C 196.67 364.88 209.42 363.30 222.04 360.86 C 226.88 376.35 230.86 392.14 235.05 407.83 C 222.12 409.46 209.34 412.40 196.29 413.03 C 191.96 397.76 187.23 382.58 184.00 367.02 Z" />
<path fill="#fdfdfd" opacity="1.00" d=" M 126.30 373.51 C 138.83 372.62 151.21 370.33 163.69 369.09 C 169.30 384.31 172.65 400.65 175.89 416.57 C 163.15 417.89 150.45 419.61 137.87 422.03 C 133.84 405.92 127.75 390.14 126.30 373.51 Z" />
<path fill="#fdfdfd" opacity="1.00" d=" M 496.17 392.43 C 507.70 391.04 519.11 388.68 530.73 388.09 C 534.27 403.03 540.53 417.09 545.14 431.69 C 534.11 433.43 523.14 435.48 512.11 437.16 C 504.71 423.12 499.46 407.92 496.17 392.43 Z" />
<path fill="#fdfdfd" opacity="1.00" d=" M 436.96 401.12 C 449.88 399.32 462.75 396.95 475.77 396.01 C 480.86 410.58 487.30 424.75 491.13 439.73 C 478.60 442.35 465.97 444.46 453.25 445.87 C 448.02 430.88 442.13 416.13 436.96 401.12 Z" />
<path fill="#fdfdfd" opacity="1.00" d=" M 378.93 409.84 C 391.52 407.37 404.26 405.78 416.92 403.75 C 422.59 418.65 427.38 433.86 433.18 448.71 C 420.55 450.40 408.03 452.94 395.31 453.92 C 389.21 439.47 384.19 424.60 378.93 409.84 Z" />
<path fill="#fdfdfd" opacity="1.00" d=" M 320.01 417.95 C 332.94 415.81 345.91 413.95 358.85 411.93 C 364.79 426.96 369.81 442.35 376.14 457.23 C 363.26 459.62 350.29 461.73 337.24 462.96 C 330.88 448.20 325.58 433.02 320.01 417.95 Z" />
<path fill="#fdfdfd" opacity="1.00" d=" M 261.97 426.14 C 274.60 423.73 287.42 422.44 300.06 420.04 C 305.47 435.38 312.05 450.30 316.96 465.82 C 304.40 467.92 291.90 470.42 279.26 471.98 C 273.07 456.86 267.21 441.60 261.97 426.14 Z" />
<path fill="#fdfdfd" opacity="1.00" d=" M 203.76 434.35 C 216.40 432.31 229.11 430.66 241.82 429.10 C 247.25 444.54 252.32 460.12 259.15 475.02 C 246.49 477.14 233.76 478.88 221.11 481.11 C 215.22 465.57 208.72 450.21 203.76 434.35 Z" />
<path fill="#fdfdfd" opacity="1.00" d=" M 144.91 442.88 C 157.52 440.24 170.41 439.38 183.04 436.87 C 188.54 452.73 194.91 468.25 201.05 483.86 C 188.45 485.04 176.08 488.03 163.47 488.96 C 156.00 474.20 151.28 458.15 144.91 442.88 Z" />
<path fill="#fdfdfd" opacity="1.00" d=" M 521.73 457.25 C 532.58 455.09 543.47 452.77 554.53 452.05 C 561.91 466.39 569.30 480.94 576.20 495.55 C 565.25 497.09 554.36 499.16 543.32 500.00 C 536.10 485.77 527.52 472.17 521.73 457.25 Z" />
<path fill="#fdfdfd" opacity="1.00" d=" M 462.86 465.92 C 475.37 463.48 488.00 461.42 500.76 460.85 C 507.40 475.34 516.44 488.76 522.10 503.68 C 510.13 505.60 498.15 507.47 486.13 508.97 C 477.66 495.01 470.65 480.25 462.86 465.92 Z" />
<path fill="#fdfdfd" opacity="1.00" d=" M 405.90 474.36 C 417.92 472.82 429.80 470.40 441.82 468.89 C 449.09 483.58 456.80 498.05 464.28 512.64 C 452.30 514.61 440.33 516.72 428.26 518.12 C 420.22 503.88 410.84 490.07 405.90 474.36 Z" />
<path fill="#fdfdfd" opacity="1.00" d=" M 347.00 483.18 C 359.56 481.42 372.03 478.84 384.71 478.01 C 391.67 492.88 399.27 507.42 406.95 521.92 C 394.98 523.99 382.91 525.52 370.99 527.93 C 363.37 512.81 354.49 498.37 347.00 483.18 Z" />
<path fill="#fdfdfd" opacity="1.00" d=" M 289.88 492.28 C 301.86 489.87 314.01 488.44 325.97 485.92 C 332.20 501.41 340.25 516.05 349.07 530.20 C 338.06 534.19 325.12 534.75 313.28 536.89 C 305.81 521.84 295.71 508.12 289.88 492.28 Z" />
<path fill="#fdfdfd" opacity="1.00" d=" M 231.38 501.08 C 242.69 497.89 255.87 497.20 267.90 494.90 C 274.85 510.57 282.25 526.00 291.33 540.55 C 279.29 542.27 267.32 544.53 255.26 546.08 C 246.90 531.38 236.67 516.88 231.38 501.08 Z" />
<path fill="#fdfdfd" opacity="1.00" d=" M 172.00 508.98 C 184.88 507.10 197.74 504.91 210.74 503.99 C 217.23 519.70 225.71 534.48 233.21 549.67 C 221.39 551.45 209.60 554.61 197.63 554.71 C 187.96 540.15 179.47 524.79 172.00 508.98 Z" />
</g>
<g id="#050505ff">
<path fill="#050505" opacity="1.00" d=" M 540.50 34.47 C 558.76 31.73 573.64 50.05 572.88 67.31 C 572.37 221.07 594.65 381.54 674.08 515.83 C 689.94 533.12 683.75 566.49 658.81 570.89 C 493.52 597.80 328.04 623.81 162.72 650.58 C 147.45 652.55 137.12 640.42 129.24 629.26 C 98.03 633.02 67.18 640.15 36.16 645.49 C 16.01 650.14 0.87 627.89 2.22 609.71 C 1.96 446.62 1.63 283.50 2.38 120.42 C 1.50 103.18 13.81 85.30 31.98 84.97 C 201.43 67.54 371.03 51.62 540.50 34.47 M 32.39 118.42 C 32.72 291.04 66.90 468.89 159.20 617.02 C 323.25 591.71 487.15 565.08 651.09 538.95 C 600.14 462.88 573.86 373.14 558.23 283.77 C 546.83 212.42 539.31 140.23 540.86 67.89 C 371.33 84.28 201.90 101.79 32.39 118.42 Z" />
<path fill="#050505" opacity="1.00" d=" M 442.72 99.42 C 462.79 95.01 467.81 129.18 450.02 134.69 C 428.64 140.75 423.38 103.64 442.72 99.42 Z" />
<path fill="#050505" opacity="1.00" d=" M 130.71 134.47 C 152.25 130.53 157.23 167.15 137.22 171.59 C 114.58 177.40 110.11 138.00 130.71 134.47 Z" />
<path fill="#050505" opacity="1.00" d=" M 417.16 163.77 C 432.31 162.42 439.27 183.87 429.96 193.87 C 422.25 200.42 411.76 201.00 402.33 203.31 C 340.85 214.51 278.70 222.40 216.34 226.50 C 207.30 226.37 197.20 229.23 189.01 224.07 C 176.07 215.48 180.30 190.93 196.67 189.51 C 270.53 184.65 344.16 175.83 417.16 163.77 Z" />
<path fill="#050505" opacity="1.00" d=" M 503.56 235.54 C 509.69 234.18 519.83 234.72 520.58 242.71 C 533.67 330.94 553.58 420.93 601.92 497.23 C 605.27 502.37 604.21 511.50 596.97 512.17 C 466.84 533.40 336.51 553.53 206.33 574.51 C 199.18 574.94 189.01 579.30 184.98 570.97 C 132.28 489.17 103.87 393.81 91.20 297.93 C 89.32 291.98 94.10 286.14 99.95 285.66 C 234.49 268.97 369.04 252.30 503.56 235.54 M 464.10 262.02 C 466.80 276.99 469.55 291.95 472.17 306.93 C 484.82 305.28 497.47 303.65 510.12 301.92 C 507.58 286.98 505.26 272.01 502.95 257.03 C 490.08 259.30 477.07 260.51 464.10 262.02 M 405.28 269.24 C 407.97 284.43 410.88 299.59 413.16 314.86 C 426.48 313.26 439.77 311.49 453.07 309.79 C 450.66 294.39 447.50 279.11 443.90 263.95 C 431.04 265.85 418.16 267.52 405.28 269.24 M 346.86 277.09 C 349.03 292.48 352.07 307.72 355.10 322.95 C 367.96 320.75 380.86 318.80 393.85 317.55 C 392.00 302.15 388.46 286.97 385.58 271.75 C 372.92 272.46 359.68 275.35 346.86 277.09 M 287.92 283.20 C 290.02 298.88 293.30 314.36 296.22 329.90 C 309.13 329.02 321.89 326.75 334.76 325.48 C 333.36 309.55 329.04 294.06 326.77 278.25 C 313.82 279.90 300.87 281.53 287.92 283.20 M 228.92 291.04 C 231.78 306.69 234.90 322.29 237.26 338.02 C 250.25 337.11 263.04 334.55 275.93 332.80 C 274.17 317.04 271.19 301.44 267.93 285.94 C 254.93 287.66 241.90 289.17 228.92 291.04 M 170.13 297.46 C 172.12 313.78 176.31 329.76 179.10 345.96 C 191.94 343.23 205.13 342.70 217.95 339.99 C 215.05 324.33 211.11 308.86 209.18 293.02 C 196.25 295.17 183.18 296.36 170.13 297.46 M 111.92 305.23 C 114.13 321.25 117.71 337.03 120.22 353.00 C 133.22 352.12 146.09 350.06 159.04 348.73 C 157.26 332.37 153.45 316.33 150.79 300.11 C 137.78 301.36 124.90 303.67 111.92 305.23 M 478.07 327.49 C 479.87 343.06 484.69 358.08 489.00 373.10 C 500.56 370.80 512.22 369.08 523.90 367.49 C 522.01 352.36 517.31 337.78 513.94 322.96 C 502.00 324.55 490.05 326.15 478.07 327.49 M 418.91 335.22 C 421.81 350.58 426.64 365.45 430.50 380.57 C 443.40 380.01 456.00 376.90 468.83 375.62 C 465.59 360.22 461.45 345.01 457.03 329.92 C 444.39 332.11 431.64 333.66 418.91 335.22 M 360.14 343.14 C 363.82 358.52 367.86 373.81 372.11 389.04 C 385.18 387.92 398.11 385.67 411.08 383.77 C 407.33 368.39 402.43 353.30 398.80 337.88 C 385.84 339.04 373.01 341.27 360.14 343.14 M 302.06 350.34 C 304.13 366.33 308.18 382.11 314.13 397.10 C 326.74 395.05 339.38 393.19 352.07 391.69 C 349.07 376.15 343.96 361.10 339.98 345.80 C 327.29 346.95 314.74 349.19 302.06 350.34 M 242.85 359.18 C 245.22 374.70 250.75 389.44 254.52 404.62 C 267.54 404.08 280.26 400.96 293.21 399.68 C 289.07 384.13 284.85 368.60 281.16 352.94 C 268.48 355.56 255.54 356.65 242.85 359.18 M 184.00 367.02 C 187.23 382.58 191.96 397.76 196.29 413.03 C 209.34 412.40 222.12 409.46 235.05 407.83 C 230.86 392.14 226.88 376.35 222.04 360.86 C 209.42 363.30 196.67 364.88 184.00 367.02 M 126.30 373.51 C 127.75 390.14 133.84 405.92 137.87 422.03 C 150.45 419.61 163.15 417.89 175.89 416.57 C 172.65 400.65 169.30 384.31 163.69 369.09 C 151.21 370.33 138.83 372.62 126.30 373.51 M 496.17 392.43 C 499.46 407.92 504.71 423.12 512.11 437.16 C 523.14 435.48 534.11 433.43 545.14 431.69 C 540.53 417.09 534.27 403.03 530.73 388.09 C 519.11 388.68 507.70 391.04 496.17 392.43 M 436.96 401.12 C 442.13 416.13 448.02 430.88 453.25 445.87 C 465.97 444.46 478.60 442.35 491.13 439.73 C 487.30 424.75 480.86 410.58 475.77 396.01 C 462.75 396.95 449.88 399.32 436.96 401.12 M 378.93 409.84 C 384.19 424.60 389.21 439.47 395.31 453.92 C 408.03 452.94 420.55 450.40 433.18 448.71 C 427.38 433.86 422.59 418.65 416.92 403.75 C 404.26 405.78 391.52 407.37 378.93 409.84 M 320.01 417.95 C 325.58 433.02 330.88 448.20 337.24 462.96 C 350.29 461.73 363.26 459.62 376.14 457.23 C 369.81 442.35 364.79 426.96 358.85 411.93 C 345.91 413.95 332.94 415.81 320.01 417.95 M 261.97 426.14 C 267.21 441.60 273.07 456.86 279.26 471.98 C 291.90 470.42 304.40 467.92 316.96 465.82 C 312.05 450.30 305.47 435.38 300.06 420.04 C 287.42 422.44 274.60 423.73 261.97 426.14 M 203.76 434.35 C 208.72 450.21 215.22 465.57 221.11 481.11 C 233.76 478.88 246.49 477.14 259.15 475.02 C 252.32 460.12 247.25 444.54 241.82 429.10 C 229.11 430.66 216.40 432.31 203.76 434.35 M 144.91 442.88 C 151.28 458.15 156.00 474.20 163.47 488.96 C 176.08 488.03 188.45 485.04 201.05 483.86 C 194.91 468.25 188.54 452.73 183.04 436.87 C 170.41 439.38 157.52 440.24 144.91 442.88 M 521.73 457.25 C 527.52 472.17 536.10 485.77 543.32 500.00 C 554.36 499.16 565.25 497.09 576.20 495.55 C 569.30 480.94 561.91 466.39 554.53 452.05 C 543.47 452.77 532.58 455.09 521.73 457.25 M 462.86 465.92 C 470.65 480.25 477.66 495.01 486.13 508.97 C 498.15 507.47 510.13 505.60 522.10 503.68 C 516.44 488.76 507.40 475.34 500.76 460.85 C 488.00 461.42 475.37 463.48 462.86 465.92 M 405.90 474.36 C 410.84 490.07 420.22 503.88 428.26 518.12 C 440.33 516.72 452.30 514.61 464.28 512.64 C 456.80 498.05 449.09 483.58 441.82 468.89 C 429.80 470.40 417.92 472.82 405.90 474.36 M 347.00 483.18 C 354.49 498.37 363.37 512.81 370.99 527.93 C 382.91 525.52 394.98 523.99 406.95 521.92 C 399.27 507.42 391.67 492.88 384.71 478.01 C 372.03 478.84 359.56 481.42 347.00 483.18 M 289.88 492.28 C 295.71 508.12 305.81 521.84 313.28 536.89 C 325.12 534.75 338.06 534.19 349.07 530.20 C 340.25 516.05 332.20 501.41 325.97 485.92 C 314.01 488.44 301.86 489.87 289.88 492.28 M 231.38 501.08 C 236.67 516.88 246.90 531.38 255.26 546.08 C 267.32 544.53 279.29 542.27 291.33 540.55 C 282.25 526.00 274.85 510.57 267.90 494.90 C 255.87 497.20 242.69 497.89 231.38 501.08 M 172.00 508.98 C 179.47 524.79 187.96 540.15 197.63 554.71 C 209.60 554.61 221.39 551.45 233.21 549.67 C 225.71 534.48 217.23 519.70 210.74 503.99 C 197.74 504.91 184.88 507.10 172.00 508.98 Z" />
</g>
</svg>
