<?xml version="1.0" encoding="UTF-8" ?>
<!DOCTYPE svg PUBLIC "-//W3C//DTD SVG 1.1//EN" "http://www.w3.org/Graphics/SVG/1.1/DTD/svg11.dtd">
<svg width="148pt" height="197pt" viewBox="0 0 148 197" version="1.1" xmlns="http://www.w3.org/2000/svg">
<g id="#151310ff">
<path fill="#151310" opacity="1.00" d=" M 69.63 0.00 L 78.43 0.00 C 91.23 2.20 107.40 10.58 105.20 25.99 C 102.98 49.48 99.94 72.93 97.92 96.45 C 105.89 94.06 115.59 90.05 123.03 95.96 C 131.27 102.39 128.45 114.50 135.03 121.95 C 140.00 128.05 144.30 134.67 148.00 141.61 L 148.00 150.40 C 140.03 171.37 119.84 185.68 101.33 197.00 L 64.86 197.00 C 48.69 194.38 29.26 196.97 16.74 184.25 C 7.13 171.62 3.61 155.55 0.00 140.39 L 0.00 131.43 C 1.52 120.17 13.03 117.75 21.85 115.63 C 27.68 103.25 47.13 110.75 50.38 96.93 C 48.72 72.26 45.37 47.62 42.83 23.01 C 40.66 8.03 58.56 3.37 69.63 0.00 M 49.72 16.94 C 53.30 48.52 52.14 81.30 60.96 111.91 C 63.83 118.30 57.36 115.14 53.61 114.40 C 43.17 110.51 28.26 114.29 24.91 126.00 C 23.55 130.32 27.31 140.40 19.51 136.32 C 19.60 131.08 19.87 125.84 20.05 120.60 C 11.92 120.72 3.13 126.51 5.38 135.69 C 9.25 152.16 11.34 174.87 28.03 183.23 C 49.65 190.50 74.64 187.81 97.64 189.27 C 112.02 180.21 126.14 169.11 136.45 155.46 C 144.25 145.65 134.89 135.16 128.58 127.62 C 128.03 130.40 127.50 133.19 127.00 135.98 C 124.70 144.07 124.49 153.28 118.98 160.05 C 118.64 157.75 118.32 155.44 118.21 153.12 C 121.68 139.09 125.80 124.34 122.08 109.92 C 120.78 94.93 94.12 100.34 94.84 112.63 C 95.59 118.51 92.37 118.17 88.29 115.72 C 94.34 84.15 95.58 51.95 98.38 19.99 C 89.49 0.51 61.23 2.32 49.72 16.94 Z" />
</g>
<g id="#eda21bff">
<path fill="#eda21b" opacity="1.00" d=" M 49.72 16.94 C 61.23 2.32 89.49 0.51 98.38 19.99 C 92.50 14.81 85.73 9.70 77.41 10.43 C 74.31 9.60 77.17 11.98 77.84 13.17 C 70.36 12.81 62.66 14.22 56.25 18.22 C 56.05 15.71 54.75 14.78 52.36 15.42 C 51.73 47.87 59.75 79.61 60.96 111.91 C 52.14 81.30 53.30 48.52 49.72 16.94 Z" />
</g>
<g id="#fee600ff">
<path fill="#fee600" opacity="1.00" d=" M 77.41 10.43 C 85.73 9.70 92.50 14.81 98.38 19.99 C 95.58 51.95 94.34 84.15 88.29 115.72 C 92.37 118.17 95.59 118.51 94.84 112.63 C 101.49 109.01 111.08 101.59 118.08 107.87 C 124.97 122.26 116.56 138.07 118.21 153.12 C 118.32 155.44 118.64 157.75 118.98 160.05 C 124.49 153.28 124.70 144.07 127.00 135.98 C 131.01 132.07 135.54 145.11 133.32 149.24 C 123.86 164.48 108.84 175.40 97.64 189.27 C 74.64 187.81 49.65 190.50 28.03 183.23 C 21.18 166.04 6.49 148.28 11.96 128.98 C 19.17 120.85 20.08 128.96 19.51 136.32 C 27.31 140.40 23.55 130.32 24.91 126.00 C 28.26 114.29 43.17 110.51 53.61 114.40 C 57.36 115.14 63.83 118.30 60.96 111.91 C 59.75 79.61 51.73 47.87 52.36 15.42 C 54.75 14.78 56.05 15.71 56.25 18.22 C 53.89 25.51 58.13 37.93 60.25 46.77 C 67.35 50.52 76.88 48.84 84.70 47.71 C 92.05 41.02 92.19 29.78 94.36 20.63 C 89.34 17.21 83.92 14.12 77.84 13.17 C 77.17 11.98 74.31 9.60 77.41 10.43 Z" />
</g>
<g id="#0c0d00ff">
<path fill="#0c0d00" opacity="1.00" d=" M 56.25 18.22 C 62.66 14.22 70.36 12.81 77.84 13.17 C 83.92 14.12 89.34 17.21 94.36 20.63 C 92.19 29.78 92.05 41.02 84.70 47.71 C 76.88 48.84 67.35 50.52 60.25 46.77 C 58.13 37.93 53.89 25.51 56.25 18.22 M 56.16 20.22 C 58.34 27.60 59.55 35.21 60.85 42.78 C 67.91 38.10 76.49 38.61 84.49 39.73 C 89.26 42.03 90.45 27.99 90.60 22.92 C 81.29 13.49 67.11 14.23 56.16 20.22 M 70.42 41.56 C 67.90 42.71 60.86 42.49 62.85 46.35 C 70.37 45.69 79.01 48.18 85.63 43.65 C 80.79 41.91 75.58 40.76 70.42 41.56 Z" />
</g>
<g id="#87afcaff">
<path fill="#87afca" opacity="1.00" d=" M 56.16 20.22 C 67.11 14.23 81.29 13.49 90.60 22.92 C 81.22 20.21 71.48 17.06 61.69 19.91 C 62.62 25.80 63.49 31.69 64.34 37.59 C 70.97 35.86 79.34 33.68 84.49 39.73 C 76.49 38.61 67.91 38.10 60.85 42.78 C 59.55 35.21 58.34 27.60 56.16 20.22 Z" />
</g>
<g id="#fcfefdff">
<path fill="#fcfefd" opacity="1.00" d=" M 61.69 19.91 C 71.48 17.06 81.22 20.21 90.60 22.92 C 90.45 27.99 89.26 42.03 84.49 39.73 C 79.34 33.68 70.97 35.86 64.34 37.59 C 63.49 31.69 62.62 25.80 61.69 19.91 Z" />
</g>
<g id="#f4fbfbff">
<path fill="#f4fbfb" opacity="1.00" d=" M 70.42 41.56 C 75.58 40.76 80.79 41.91 85.63 43.65 C 79.01 48.18 70.37 45.69 62.85 46.35 C 60.86 42.49 67.90 42.71 70.42 41.56 Z" />
</g>
<g id="#e89428ff">
<path fill="#e89428" opacity="1.00" d=" M 94.84 112.63 C 94.12 100.34 120.78 94.93 122.08 109.92 C 125.80 124.34 121.68 139.09 118.21 153.12 C 116.56 138.07 124.97 122.26 118.08 107.87 C 111.08 101.59 101.49 109.01 94.84 112.63 Z" />
</g>
<g id="#eb9325ff">
<path fill="#eb9325" opacity="1.00" d=" M 5.38 135.69 C 3.13 126.51 11.92 120.72 20.05 120.60 C 19.87 125.84 19.60 131.08 19.51 136.32 C 20.08 128.96 19.17 120.85 11.96 128.98 C 6.49 148.28 21.18 166.04 28.03 183.23 C 11.34 174.87 9.25 152.16 5.38 135.69 Z" />
</g>
<g id="#eb9228ff">
<path fill="#eb9228" opacity="1.00" d=" M 128.58 127.62 C 134.89 135.16 144.25 145.65 136.45 155.46 C 126.14 169.11 112.02 180.21 97.64 189.27 C 108.84 175.40 123.86 164.48 133.32 149.24 C 135.54 145.11 131.01 132.07 127.00 135.98 C 127.50 133.19 128.03 130.40 128.58 127.62 Z" />
</g>
</svg>
