<?xml version="1.0" encoding="UTF-8" ?>
<!DOCTYPE svg PUBLIC "-//W3C//DTD SVG 1.1//EN" "http://www.w3.org/Graphics/SVG/1.1/DTD/svg11.dtd">
<svg width="237pt" height="246pt" viewBox="0 0 237 246" version="1.1" xmlns="http://www.w3.org/2000/svg">
<g id="#2c577aff">
<path fill="#2c577a" opacity="1.00" d=" M 165.14 147.83 C 167.90 145.03 171.93 145.21 175.55 145.03 C 172.00 145.64 168.51 146.53 165.14 147.83 Z" />
<path fill="#2c577a" opacity="1.00" d=" M 199.00 147.62 C 199.46 148.33 199.92 149.03 200.38 149.74 C 198.46 151.50 196.42 153.31 195.52 155.84 C 195.00 158.05 194.64 160.29 194.28 162.54 C 194.07 159.62 193.61 156.73 192.82 153.91 C 195.54 152.56 197.62 150.31 199.00 147.62 Z" />
</g>
<g id="#f8ffffff">
<path fill="#f8ffff" opacity="1.00" d=" M 49.57 15.95 C 49.17 13.63 50.86 11.59 52.87 10.71 C 55.40 10.18 57.67 12.17 58.56 14.39 C 60.17 18.26 61.01 22.40 62.52 26.32 C 65.28 21.86 63.45 15.22 67.97 11.82 C 70.83 9.69 74.83 12.70 74.50 15.99 C 74.21 19.44 73.11 22.77 72.43 26.15 C 80.16 27.47 87.71 30.99 92.96 36.93 C 98.65 43.17 102.03 51.12 104.29 59.15 C 104.67 61.50 105.59 64.63 103.40 66.39 C 102.26 67.57 100.56 67.55 99.05 67.55 C 76.69 67.50 54.32 67.53 31.96 67.54 C 28.94 67.89 26.39 64.94 27.26 61.97 C 29.58 47.51 38.34 32.54 52.98 27.88 C 52.15 23.81 50.33 20.02 49.57 15.95 M 55.48 30.00 C 51.39 30.76 47.55 32.69 44.39 35.39 C 35.76 42.47 30.96 53.41 29.46 64.28 C 33.14 65.75 37.14 65.14 41.00 65.21 C 59.65 65.23 78.30 65.20 96.95 65.24 C 98.84 65.27 100.66 64.74 102.47 64.26 C 100.55 50.72 93.29 36.37 80.03 30.93 C 73.95 28.20 67.17 28.46 60.66 28.60 C 59.20 24.28 57.89 19.90 56.28 15.64 C 55.86 13.73 54.27 13.13 52.45 13.24 C 51.25 19.19 56.25 24.16 55.48 30.00 M 67.91 16.02 C 66.91 19.23 66.25 22.53 65.57 25.82 C 67.07 25.77 68.56 25.73 70.05 25.68 C 70.88 21.74 72.77 17.55 71.23 13.55 C 69.50 12.92 68.22 14.54 67.91 16.02 Z" />
</g>
<g id="#a6c84dff">
<path fill="#a6c84d" opacity="1.00" d=" M 55.48 30.00 C 56.25 24.16 51.25 19.19 52.45 13.24 C 54.27 13.13 55.86 13.73 56.28 15.64 C 57.89 19.90 59.20 24.28 60.66 28.60 C 67.17 28.46 73.95 28.20 80.03 30.93 C 93.29 36.37 100.55 50.72 102.47 64.26 C 100.66 64.74 98.84 65.27 96.95 65.24 C 78.30 65.20 59.65 65.23 41.00 65.21 C 37.14 65.14 33.14 65.75 29.46 64.28 C 30.96 53.41 35.76 42.47 44.39 35.39 C 47.55 32.69 51.39 30.76 55.48 30.00 M 77.80 41.59 C 75.54 43.23 76.48 46.26 76.34 48.61 C 78.38 51.16 81.70 50.91 83.60 48.36 C 83.47 46.40 84.21 44.03 82.67 42.45 C 81.66 40.82 79.36 40.95 77.80 41.59 Z" />
<path fill="#a6c84d" opacity="1.00" d=" M 29.50 145.71 C 29.58 121.04 29.31 96.35 29.64 71.68 C 52.41 71.73 75.19 71.66 97.97 71.72 C 96.26 79.24 93.47 86.47 91.43 93.91 C 89.23 100.29 87.69 106.88 85.20 113.17 C 79.90 104.74 74.21 96.55 68.76 88.22 C 66.42 84.53 62.60 81.27 58.00 81.38 C 49.29 80.45 41.55 90.95 46.01 98.83 C 53.66 111.40 62.18 123.43 70.33 135.67 C 71.83 138.20 74.35 139.77 76.72 141.38 C 76.22 143.07 75.72 144.76 75.22 146.45 C 64.81 146.43 54.41 146.29 44.01 146.23 C 39.18 145.93 34.35 145.57 29.50 145.71 Z" />
<path fill="#a6c84d" opacity="1.00" d=" M 54.40 84.56 C 58.24 83.67 62.82 84.35 65.14 87.88 C 73.34 99.38 80.82 111.39 88.71 123.12 C 91.79 127.06 91.59 133.37 87.54 136.58 C 83.00 140.64 75.00 139.23 72.19 133.76 C 64.36 121.95 56.33 110.27 48.71 98.33 C 45.59 93.24 48.58 85.93 54.40 84.56 Z" />
<path fill="#a6c84d" opacity="1.00" d=" M 32.69 148.61 C 39.27 148.50 45.84 148.72 52.41 148.67 C 52.33 155.75 52.61 162.87 51.79 169.91 C 51.36 174.71 46.90 178.97 41.98 178.61 C 36.87 178.88 32.18 174.07 32.38 169.00 C 32.34 162.20 32.68 155.41 32.69 148.61 Z" />
<path fill="#a6c84d" opacity="1.00" d=" M 55.99 148.89 C 62.68 148.66 69.37 149.14 76.06 149.32 C 76.68 155.67 79.15 161.67 79.71 168.01 C 80.48 173.82 74.75 179.24 69.01 178.48 C 64.62 178.05 61.06 174.25 60.30 170.00 C 58.90 162.95 56.74 156.05 55.99 148.89 Z" />
</g>
<g id="#a5c751ff">
<path fill="#a5c751" opacity="1.00" d=" M 67.91 16.02 C 68.22 14.54 69.50 12.92 71.23 13.55 C 72.77 17.55 70.88 21.74 70.05 25.68 C 68.56 25.73 67.07 25.77 65.57 25.82 C 66.25 22.53 66.91 19.23 67.91 16.02 Z" />
</g>
<g id="#fefffaff">
<path fill="#fefffa" opacity="1.00" d=" M 77.80 41.59 C 79.36 40.95 81.66 40.82 82.67 42.45 C 84.21 44.03 83.47 46.40 83.60 48.36 C 81.70 50.91 78.38 51.16 76.34 48.61 C 76.48 46.26 75.54 43.23 77.80 41.59 Z" />
</g>
<g id="#f8fff3ff">
<path fill="#f8fff3" opacity="1.00" d=" M 27.51 69.56 C 45.65 68.95 63.82 69.46 81.97 69.29 C 88.11 69.42 94.28 68.98 100.41 69.62 C 100.49 71.02 100.68 72.45 100.28 73.82 C 95.80 87.84 91.55 101.94 87.21 116.00 C 88.49 118.24 90.03 120.31 91.84 122.15 C 91.97 122.48 92.23 123.14 92.36 123.47 C 93.55 126.73 94.08 130.41 92.76 133.72 C 90.87 139.06 85.02 142.27 79.49 141.67 C 78.90 143.14 78.33 144.63 77.76 146.11 C 79.48 152.69 80.69 159.38 82.18 166.01 C 83.27 170.84 81.15 176.21 77.02 178.96 C 72.58 182.35 66.01 181.90 61.95 178.10 C 56.43 173.27 57.46 165.17 54.89 158.85 C 54.41 164.61 55.75 171.06 52.20 176.11 C 48.65 180.96 41.50 183.14 36.16 179.90 C 32.82 178.14 30.60 174.72 29.79 171.09 C 29.31 163.70 30.06 156.30 30.18 148.91 C 28.91 148.26 26.93 147.85 27.20 146.00 C 27.05 123.34 27.21 100.66 27.12 78.00 C 27.07 75.18 27.13 72.35 27.51 69.56 M 29.50 145.71 C 34.35 145.57 39.18 145.93 44.01 146.23 C 54.41 146.29 64.81 146.43 75.22 146.45 C 75.72 144.76 76.22 143.07 76.72 141.38 C 74.35 139.77 71.83 138.20 70.33 135.67 C 62.18 123.43 53.66 111.40 46.01 98.83 C 41.55 90.95 49.29 80.45 58.00 81.38 C 62.60 81.27 66.42 84.53 68.76 88.22 C 74.21 96.55 79.90 104.74 85.20 113.17 C 87.69 106.88 89.23 100.29 91.43 93.91 C 93.47 86.47 96.26 79.24 97.97 71.72 C 75.19 71.66 52.41 71.73 29.64 71.68 C 29.31 96.35 29.58 121.04 29.50 145.71 M 54.40 84.56 C 48.58 85.93 45.59 93.24 48.71 98.33 C 56.33 110.27 64.36 121.95 72.19 133.76 C 75.00 139.23 83.00 140.64 87.54 136.58 C 91.59 133.37 91.79 127.06 88.71 123.12 C 80.82 111.39 73.34 99.38 65.14 87.88 C 62.82 84.35 58.24 83.67 54.40 84.56 M 32.69 148.61 C 32.68 155.41 32.34 162.20 32.38 169.00 C 32.18 174.07 36.87 178.88 41.98 178.61 C 46.90 178.97 51.36 174.71 51.79 169.91 C 52.61 162.87 52.33 155.75 52.41 148.67 C 45.84 148.72 39.27 148.50 32.69 148.61 M 55.99 148.89 C 56.74 156.05 58.90 162.95 60.30 170.00 C 61.06 174.25 64.62 178.05 69.01 178.48 C 74.75 179.24 80.48 173.82 79.71 168.01 C 79.15 161.67 76.68 155.67 76.06 149.32 C 69.37 149.14 62.68 148.66 55.99 148.89 Z" />
</g>
<g id="#feffffff">
<path fill="#feffff" opacity="1.00" d=" M 122.26 108.10 C 134.87 104.42 149.16 104.38 160.71 111.25 C 170.42 117.46 178.55 127.37 180.21 139.03 C 183.33 135.65 187.59 131.77 192.59 133.50 C 192.68 137.05 192.80 140.90 190.11 143.65 C 192.66 143.90 195.21 144.91 197.77 144.68 C 200.75 143.39 204.18 141.89 207.31 143.67 C 208.83 144.06 209.62 146.21 208.22 147.19 C 205.48 147.01 202.75 146.67 200.00 146.62 C 201.03 148.05 202.47 149.70 201.65 151.59 C 200.04 153.66 197.37 155.25 197.17 158.12 C 197.35 162.00 200.79 164.32 203.23 166.87 C 204.96 170.16 202.74 173.62 201.04 176.42 C 203.53 177.19 205.97 178.19 207.87 180.03 C 206.33 181.56 204.50 182.78 202.36 183.28 C 192.48 186.09 182.07 185.56 171.92 185.17 C 166.46 184.31 160.02 184.29 155.99 179.95 C 157.99 178.03 160.59 177.10 163.23 176.43 C 157.83 168.67 157.34 158.08 161.62 149.72 C 158.97 147.06 153.81 145.64 154.00 141.20 C 155.75 140.94 157.69 140.46 159.24 141.64 C 161.28 143.44 161.44 146.38 162.05 148.85 C 165.52 144.81 170.79 143.73 175.89 144.24 C 175.77 135.41 171.69 126.74 164.95 121.03 C 152.87 109.58 134.64 107.17 118.96 111.06 C 109.33 113.39 100.94 118.75 92.36 123.47 C 92.23 123.14 91.97 122.48 91.84 122.15 C 92.81 120.62 94.52 119.84 95.99 118.90 C 104.25 114.24 112.93 110.08 122.26 108.10 M 187.97 138.06 C 186.62 138.57 185.00 138.80 184.11 140.07 C 185.30 138.31 188.54 136.71 187.25 134.24 C 183.73 136.98 179.58 140.60 180.72 145.63 L 182.48 145.33 C 181.50 147.36 180.27 149.37 177.65 148.19 C 177.24 151.01 176.96 153.86 176.80 156.70 L 176.18 156.77 C 177.64 153.04 176.54 148.78 175.55 145.03 C 171.93 145.21 167.90 145.03 165.14 147.83 L 164.98 147.88 L 164.92 148.14 C 161.87 150.87 160.43 154.97 160.61 159.02 C 160.79 161.39 160.01 164.64 162.63 165.96 C 163.75 166.28 164.89 166.52 166.04 166.77 L 166.88 165.88 C 168.27 165.81 170.13 164.76 170.92 166.50 C 169.50 166.46 168.09 166.39 166.67 166.31 C 166.53 166.62 166.25 167.26 166.11 167.58 C 164.64 167.61 163.16 167.64 161.69 167.68 C 163.84 172.90 166.67 178.24 171.53 181.38 C 175.08 182.72 178.43 180.06 181.98 180.17 C 185.56 180.00 188.94 182.68 192.51 181.38 C 197.28 178.80 200.05 173.73 201.90 168.82 C 199.80 167.05 197.24 165.51 196.14 162.88 C 195.09 160.67 195.46 158.18 195.52 155.84 C 196.42 153.31 198.46 151.50 200.38 149.74 C 199.92 149.03 199.46 148.33 199.00 147.62 C 198.14 147.49 196.43 147.23 195.57 147.10 L 198.09 145.82 C 194.43 144.74 190.62 144.27 186.83 144.87 C 186.56 144.79 186.02 144.62 185.75 144.54 C 190.05 142.70 191.23 137.60 191.56 133.41 C 189.08 133.68 188.46 136.01 187.97 138.06 Z" />
<path fill="#feffff" opacity="1.00" d=" M 15.56 204.59 C 22.15 199.65 30.84 202.39 38.42 201.64 C 38.34 211.95 38.32 222.26 38.43 232.57 C 36.51 232.55 34.59 232.53 32.67 232.51 C 32.81 224.22 32.57 215.93 32.80 207.64 C 28.38 207.79 23.63 206.77 19.48 208.72 C 13.76 211.81 13.23 220.70 18.18 224.73 C 20.50 226.80 23.76 226.53 26.64 226.66 C 26.62 228.66 26.61 230.67 26.60 232.68 C 20.82 232.99 14.67 230.62 11.67 225.46 C 7.28 218.88 9.05 209.11 15.56 204.59 Z" />
<path fill="#feffff" opacity="1.00" d=" M 44.68 215.97 C 45.07 208.89 50.90 202.59 57.96 201.74 C 65.90 200.99 73.44 208.10 73.64 215.99 C 73.86 221.55 73.64 227.12 73.70 232.69 C 71.90 232.68 70.11 232.67 68.31 232.66 C 68.25 227.06 68.52 221.46 68.21 215.86 C 67.79 210.60 62.10 206.26 56.93 207.98 C 53.27 208.78 50.51 212.17 50.32 215.88 C 50.03 221.46 50.29 227.06 50.22 232.65 C 48.34 232.66 46.47 232.66 44.59 232.66 C 44.67 227.10 44.46 221.53 44.68 215.97 Z" />
<path fill="#feffff" opacity="1.00" d=" M 163.62 201.83 C 171.43 200.72 178.98 207.37 179.89 215.02 C 181.26 223.39 174.53 232.17 165.94 232.49 C 157.74 232.81 150.50 225.14 151.07 216.99 C 150.70 209.68 156.52 203.02 163.62 201.83 M 163.45 207.59 C 157.60 208.91 154.76 215.70 156.92 221.06 C 158.56 224.91 162.91 227.61 167.11 226.70 C 172.74 225.74 176.26 218.97 174.14 213.75 C 172.79 209.50 167.80 206.43 163.45 207.59 Z" />
<path fill="#feffff" opacity="1.00" d=" M 80.24 201.64 C 88.05 202.33 97.27 199.53 103.72 205.33 C 111.33 211.32 110.74 224.32 102.81 229.77 C 96.18 234.41 87.76 232.13 80.24 232.69 C 80.22 230.65 80.19 228.61 80.17 226.56 C 85.78 226.46 91.42 226.93 97.01 226.32 C 103.08 224.87 105.58 216.73 102.17 211.76 C 100.67 209.18 97.73 207.75 94.82 207.63 C 89.93 207.47 85.05 207.61 80.16 207.62 C 80.19 205.62 80.22 203.63 80.24 201.64 Z" />
<path fill="#feffff" opacity="1.00" d=" M 115.47 207.64 C 115.49 205.64 115.51 203.64 115.51 201.65 C 121.69 201.74 127.88 201.60 134.06 201.69 C 141.03 201.49 146.54 209.39 144.07 215.89 C 143.30 217.66 142.21 219.25 141.22 220.89 C 144.14 224.08 144.93 228.34 144.66 232.54 C 142.85 232.55 141.04 232.55 139.23 232.57 C 139.44 229.07 138.76 224.38 134.72 223.41 C 128.35 222.93 121.92 223.30 115.53 223.25 C 115.51 221.28 115.49 219.31 115.47 217.35 C 121.68 217.37 127.90 217.43 134.11 217.36 C 137.58 217.72 140.47 213.44 138.68 210.41 C 137.93 208.60 136.02 207.55 134.10 207.62 C 127.89 207.55 121.68 207.60 115.47 207.64 Z" />
<path fill="#feffff" opacity="1.00" d=" M 198.21 201.62 C 205.65 202.35 214.06 199.81 220.64 204.40 C 229.14 209.95 229.20 224.13 220.81 229.81 C 214.16 234.41 205.75 232.12 198.23 232.69 C 198.12 230.66 198.00 228.63 197.85 226.61 C 203.65 226.37 209.52 227.02 215.29 226.27 C 223.52 224.20 223.83 210.66 215.72 208.21 C 209.86 206.84 203.73 207.93 197.76 207.57 C 197.90 205.58 198.05 203.60 198.21 201.62 Z" />
</g>
<g id="#fbffffff">
<path fill="#fbffff" opacity="1.00" d=" M 151.69 132.04 C 151.80 129.16 155.40 130.43 157.20 130.61 C 158.50 133.35 159.65 136.16 160.50 139.07 C 157.06 137.57 153.45 135.47 151.69 132.04 Z" />
</g>
<g id="#6d93b8ff">
<path fill="#6d93b8" opacity="1.00" d=" M 187.97 138.06 C 188.46 136.01 189.08 133.68 191.56 133.41 C 191.23 137.60 190.05 142.70 185.75 144.54 C 184.67 144.84 183.57 145.10 182.48 145.33 L 180.72 145.63 C 179.58 140.60 183.73 136.98 187.25 134.24 C 188.54 136.71 185.30 138.31 184.11 140.07 C 183.11 141.30 183.20 143.06 182.71 144.51 C 185.63 143.44 187.95 141.40 187.97 138.06 Z" />
</g>
<g id="#fcffffff">
<path fill="#fcffff" opacity="1.00" d=" M 165.95 137.97 C 165.03 137.02 165.64 135.60 165.62 134.45 C 171.40 133.13 173.20 139.59 173.64 143.96 C 171.15 141.87 168.31 140.20 165.95 137.97 Z" />
<path fill="#fcffff" opacity="1.00" d=" M 186.17 201.71 C 188.04 201.65 189.90 201.69 191.77 201.62 C 191.80 211.93 191.71 222.23 191.82 232.54 C 189.94 232.54 188.07 232.55 186.20 232.56 C 186.31 222.27 186.31 211.99 186.17 201.71 Z" />
</g>
<g id="#71b2deff">
<path fill="#71b2de" opacity="1.00" d=" M 184.11 140.07 C 185.00 138.80 186.62 138.57 187.97 138.06 C 187.95 141.40 185.63 143.44 182.71 144.51 C 183.20 143.06 183.11 141.30 184.11 140.07 Z" />
</g>
<g id="#8cabcfff">
<path fill="#8cabcf" opacity="1.00" d=" M 182.48 145.33 C 183.57 145.10 184.67 144.84 185.75 144.54 C 186.02 144.62 186.56 144.79 186.83 144.87 C 189.70 145.76 192.58 146.67 195.57 147.10 C 196.43 147.23 198.14 147.49 199.00 147.62 C 197.62 150.31 195.54 152.56 192.82 153.91 C 191.25 154.57 189.66 155.19 188.04 155.70 C 187.80 155.48 187.34 155.05 187.10 154.84 C 186.83 155.26 186.27 156.11 186.00 156.53 C 182.93 156.58 179.86 156.57 176.80 156.70 C 176.96 153.86 177.24 151.01 177.65 148.19 C 180.27 149.37 181.50 147.36 182.48 145.33 M 183.24 146.22 C 180.30 147.59 184.02 148.89 185.18 147.16 C 186.58 145.90 183.93 145.54 183.24 146.22 Z" />
</g>
<g id="#8398b3ff">
<path fill="#8398b3" opacity="1.00" d=" M 186.83 144.87 C 190.62 144.27 194.43 144.74 198.09 145.82 L 195.57 147.10 C 192.58 146.67 189.70 145.76 186.83 144.87 Z" />
</g>
<g id="#88a8cdff">
<path fill="#88a8cd" opacity="1.00" d=" M 165.14 147.83 C 168.51 146.53 172.00 145.64 175.55 145.03 C 176.54 148.78 177.64 153.04 176.18 156.77 C 174.63 157.09 173.09 157.42 171.55 157.76 C 171.97 156.50 172.45 155.27 172.96 154.05 C 171.77 155.32 170.60 157.38 168.62 156.01 C 168.34 157.92 168.08 159.84 167.76 161.75 C 165.40 159.84 165.13 156.42 163.29 154.08 C 163.84 152.10 164.45 150.14 164.92 148.14 L 164.98 147.88 L 165.14 147.83 M 174.05 149.15 C 172.54 152.14 177.39 149.25 174.05 149.15 Z" />
</g>
<g id="#7b91acff">
<path fill="#7b91ac" opacity="1.00" d=" M 183.24 146.22 C 183.93 145.54 186.58 145.90 185.18 147.16 C 184.02 148.89 180.30 147.59 183.24 146.22 Z" />
</g>
<g id="#5e7a9eff">
<path fill="#5e7a9e" opacity="1.00" d=" M 160.61 159.02 C 160.43 154.97 161.87 150.87 164.92 148.14 C 164.45 150.14 163.84 152.10 163.29 154.08 C 162.00 157.91 162.30 162.00 162.63 165.96 C 160.01 164.64 160.79 161.39 160.61 159.02 Z" />
</g>
<g id="#b5cfefff">
<path fill="#b5cfef" opacity="1.00" d=" M 174.05 149.15 C 177.39 149.25 172.54 152.14 174.05 149.15 Z" />
</g>
<g id="#f2ffffff">
<path fill="#f2ffff" opacity="1.00" d=" M 168.62 156.01 C 170.60 157.38 171.77 155.32 172.96 154.05 C 172.45 155.27 171.97 156.50 171.55 157.76 C 171.14 159.23 170.80 160.73 170.41 162.21 C 170.26 162.37 169.96 162.69 169.81 162.84 C 169.30 162.57 168.27 162.03 167.76 161.75 C 168.08 159.84 168.34 157.92 168.62 156.01 Z" />
</g>
<g id="#4e8bc4ff">
<path fill="#4e8bc4" opacity="1.00" d=" M 188.04 155.70 C 189.66 155.19 191.25 154.57 192.82 153.91 C 193.61 156.73 194.07 159.62 194.28 162.54 C 194.64 160.29 195.00 158.05 195.52 155.84 C 195.46 158.18 195.09 160.67 196.14 162.88 C 197.24 165.51 199.80 167.05 201.90 168.82 C 200.05 173.73 197.28 178.80 192.51 181.38 C 188.94 182.68 185.56 180.00 181.98 180.17 C 178.43 180.06 175.08 182.72 171.53 181.38 C 166.67 178.24 163.84 172.90 161.69 167.68 C 163.16 167.64 164.64 167.61 166.11 167.58 C 164.54 171.79 168.10 175.65 170.96 178.29 C 173.43 180.69 176.77 178.95 179.47 178.06 C 181.19 177.99 182.92 178.04 184.64 178.17 C 186.60 178.65 188.53 179.61 190.60 179.51 C 193.80 178.72 196.24 175.93 197.35 172.91 C 198.25 170.38 196.10 168.28 194.86 166.32 C 192.21 164.36 189.94 161.79 186.80 160.56 C 187.53 160.43 188.99 160.18 189.72 160.05 C 189.17 158.59 188.65 157.12 188.04 155.70 M 191.32 156.47 C 191.84 156.92 191.84 156.92 191.32 156.47 Z" />
</g>
<g id="#5b96ccff">
<path fill="#5b96cc" opacity="1.00" d=" M 163.29 154.08 C 165.13 156.42 165.40 159.84 167.76 161.75 C 168.27 162.03 169.30 162.57 169.81 162.84 C 168.84 163.86 167.85 164.86 166.88 165.88 L 166.04 166.77 C 164.89 166.52 163.75 166.28 162.63 165.96 C 162.30 162.00 162.00 157.91 163.29 154.08 Z" />
</g>
<g id="#9bc7eeff">
<path fill="#9bc7ee" opacity="1.00" d=" M 186.00 156.53 C 186.27 156.11 186.83 155.26 187.10 154.84 C 187.34 155.05 187.80 155.48 188.04 155.70 C 188.65 157.12 189.17 158.59 189.72 160.05 C 188.99 160.18 187.53 160.43 186.80 160.56 L 185.55 160.74 C 185.00 159.54 186.08 158.82 187.06 158.23 C 186.80 157.81 186.27 156.96 186.00 156.53 Z" />
</g>
<g id="#99c7fbff">
<path fill="#99c7fb" opacity="1.00" d=" M 191.32 156.47 C 191.84 156.92 191.84 156.92 191.32 156.47 Z" />
</g>
<g id="#5e9fd5ff">
<path fill="#5e9fd5" opacity="1.00" d=" M 171.55 157.76 C 173.09 157.42 174.63 157.09 176.18 156.77 L 176.80 156.70 C 179.86 156.57 182.93 156.58 186.00 156.53 C 186.27 156.96 186.80 157.81 187.06 158.23 C 186.08 158.82 185.00 159.54 185.55 160.74 C 185.82 161.29 186.37 162.39 186.64 162.94 C 181.22 163.35 175.73 163.44 170.41 162.21 C 170.80 160.73 171.14 159.23 171.55 157.76 Z" />
</g>
<g id="#6ab2e2ff">
<path fill="#6ab2e2" opacity="1.00" d=" M 185.55 160.74 L 186.80 160.56 C 189.94 161.79 192.21 164.36 194.86 166.32 C 196.10 168.28 198.25 170.38 197.35 172.91 C 196.24 175.93 193.80 178.72 190.60 179.51 C 188.53 179.61 186.60 178.65 184.64 178.17 C 187.53 178.05 191.01 178.61 193.33 176.45 C 195.11 174.93 195.47 171.95 193.77 170.24 C 191.86 168.02 188.66 168.32 186.02 168.17 C 181.18 168.27 176.28 167.77 171.48 168.59 C 169.15 169.81 168.20 173.01 169.82 175.19 C 171.68 178.72 176.17 177.99 179.47 178.06 C 176.77 178.95 173.43 180.69 170.96 178.29 C 168.10 175.65 164.54 171.79 166.11 167.58 C 166.25 167.26 166.53 166.62 166.67 166.31 C 168.09 166.39 169.50 166.46 170.92 166.50 C 170.13 164.76 168.27 165.81 166.88 165.88 C 167.85 164.86 168.84 163.86 169.81 162.84 C 169.96 162.69 170.26 162.37 170.41 162.21 C 175.73 163.44 181.22 163.35 186.64 162.94 C 186.37 162.39 185.82 161.29 185.55 160.74 M 190.15 164.05 C 188.66 167.05 193.49 164.14 190.15 164.05 Z" />
</g>
<g id="#a3e0fcff">
<path fill="#a3e0fc" opacity="1.00" d=" M 190.15 164.05 C 193.49 164.14 188.66 167.05 190.15 164.05 Z" />
</g>
<g id="#79c9ecff">
<path fill="#79c9ec" opacity="1.00" d=" M 171.48 168.59 C 176.28 167.77 181.18 168.27 186.02 168.17 C 188.66 168.32 191.86 168.02 193.77 170.24 C 195.47 171.95 195.11 174.93 193.33 176.45 C 191.01 178.61 187.53 178.05 184.64 178.17 C 182.92 178.04 181.19 177.99 179.47 178.06 C 176.17 177.99 171.68 178.72 169.82 175.19 C 168.20 173.01 169.15 169.81 171.48 168.59 Z" />
</g>
</svg>
