<?xml version="1.0" encoding="UTF-8" ?>
<!DOCTYPE svg PUBLIC "-//W3C//DTD SVG 1.1//EN" "http://www.w3.org/Graphics/SVG/1.1/DTD/svg11.dtd">
<svg width="207pt" height="77pt" viewBox="0 0 207 77" version="1.1" xmlns="http://www.w3.org/2000/svg">
<g id="#ffffffff">
</g>
<g id="#1f1a17ff">
<path fill="#1f1a17" opacity="1.00" d=" M 2.93 2.36 C 25.31 2.57 47.70 2.32 70.09 2.50 C 71.20 7.84 73.23 13.94 78.73 16.21 C 84.14 18.15 90.11 19.03 95.82 18.15 C 97.60 13.94 96.98 9.22 97.55 4.78 C 98.38 7.29 99.13 9.82 99.89 12.35 C 102.63 12.29 105.37 12.30 108.11 12.35 C 108.87 9.82 109.62 7.28 110.45 4.78 C 111.03 9.21 110.39 13.95 112.19 18.14 C 117.90 19.05 123.86 18.12 129.26 16.20 C 134.78 13.96 136.80 7.84 137.91 2.50 C 160.30 2.33 182.69 2.57 205.07 2.37 C 194.66 6.95 183.55 12.46 177.81 22.81 C 174.24 28.85 174.33 36.10 175.27 42.83 C 157.94 41.90 139.53 41.63 123.63 49.61 C 114.07 54.26 107.18 63.20 104.00 73.24 C 100.82 63.20 93.94 54.25 84.37 49.61 C 68.46 41.63 50.07 41.90 32.73 42.83 C 33.66 36.10 33.79 28.84 30.20 22.82 C 24.45 12.46 13.34 6.95 2.93 2.36 Z" />
</g>
</svg>
