999
dxflib 2.2.0.0
  0
SECTION
  2
HEADER
  9
$ACADVER
  1
AC1015
  9
$HANDSEED
  5
FFFF
  9
$INSUNITS
 70
4
  9
$DIMEXE
 40
1.25
  9
$TEXTSTYLE
  7
Standard
  9
$LIMMIN
 10
0.0
 20
0.0
  0
ENDSEC
  0
SECTION
  2
TABLES
  0
TABLE
  2
VPORT
  5
8
100
AcDbSymbolTable
 70
1
  0
VPORT
  5
30
100
AcDbSymbolTableRecord
100
AcDbViewportTableRecord
  2
*Active
 70
0
 10
0.0
 20
0.0
 11
1.0
 21
1.0
 12
286.30555555555549
 22
148.5
 13
0.0
 23
0.0
 14
10.0
 24
10.0
 15
10.0
 25
10.0
 16
0.0
 26
0.0
 36
1.0
 17
0.0
 27
0.0
 37
0.0
 40
297.0
 41
1.92798353909465
 42
50.0
 43
0.0
 44
0.0
 50
0.0
 51
0.0
 71
0
 72
100
 73
1
 74
3
 75
1
 76
1
 77
0
 78
0
281
0
 65
1
110
0.0
120
0.0
130
0.0
111
1.0
121
0.0
131
0.0
112
0.0
122
1.0
132
0.0
 79
0
146
0.0
  0
ENDTAB
  0
TABLE
  2
LTYPE
  5
5
100
AcDbSymbolTable
 70
25
  0
LTYPE
  5
14
100
AcDbSymbolTableRecord
100
AcDbLinetypeTableRecord
  2
BYBLOCK
 70
0
  3

 72
65
 73
0
 40
0.0
  0
LTYPE
  5
15
100
AcDbSymbolTableRecord
100
AcDbLinetypeTableRecord
  2
BYLAYER
 70
0
  3

 72
65
 73
0
 40
0.0
  0
LTYPE
  5
16
100
AcDbSymbolTableRecord
100
AcDbLinetypeTableRecord
  2
CONTINUOUS
 70
0
  3
Solid line
 72
65
 73
0
 40
0.0
  0
LTYPE
  5
31
100
AcDbSymbolTableRecord
100
AcDbLinetypeTableRecord
  2
ACAD_ISO02W100
 70
0
  3
ISO Dashed __ __ __ __ __ __ __ __ __ __ _
 72
65
 73
2
 40
15.0
 49
12.0
 74
0
 49
-3.0
 74
0
  0
LTYPE
  5
32
100
AcDbSymbolTableRecord
100
AcDbLinetypeTableRecord
  2
ACAD_ISO03W100
 70
0
  3
ISO Dashed with Distance __    __    __    _
 72
65
 73
2
 40
30.0
 49
12.0
 74
0
 49
-18.0
 74
0
  0
LTYPE
  5
33
100
AcDbSymbolTableRecord
100
AcDbLinetypeTableRecord
  2
ACAD_ISO04W100
 70
0
  3
ISO Long Dashed Dotted ____ . ____ . __
 72
65
 73
4
 40
30.0
 49
24.0
 74
0
 49
-3.0
 74
0
 49
0.0
 74
0
 49
-3.0
 74
0
  0
LTYPE
  5
34
100
AcDbSymbolTableRecord
100
AcDbLinetypeTableRecord
  2
ACAD_ISO05W100
 70
0
  3
ISO Long Dashed Double Dotted ____ .. __
 72
65
 73
6
 40
33.0
 49
24.0
 74
0
 49
-3.0
 74
0
 49
0.0
 74
0
 49
-3.0
 74
0
 49
0.0
 74
0
 49
-3.0
 74
0
  0
LTYPE
  5
35
100
AcDbSymbolTableRecord
100
AcDbLinetypeTableRecord
  2
BORDER
 70
0
  3
Border __ __ . __ __ . __ __ . __ __ . __ __ .
 72
65
 73
6
 40
44.450000000000003
 49
12.699999999999999
 74
0
 49
-6.3499999999999996
 74
0
 49
12.699999999999999
 74
0
 49
-6.3499999999999996
 74
0
 49
0.0
 74
0
 49
-6.3499999999999996
 74
0
  0
LTYPE
  5
36
100
AcDbSymbolTableRecord
100
AcDbLinetypeTableRecord
  2
BORDER2
 70
0
  3
Border (.5x) __.__.__.__.__.__.__.__.__.__.__.
 72
65
 73
6
 40
22.225000000000001
 49
6.3499999999999996
 74
0
 49
-3.1749999999999998
 74
0
 49
6.3499999999999996
 74
0
 49
-3.1749999999999998
 74
0
 49
0.0
 74
0
 49
-3.1749999999999998
 74
0
  0
LTYPE
  5
37
100
AcDbSymbolTableRecord
100
AcDbLinetypeTableRecord
  2
BORDERX2
 70
0
  3
Border (2x) ____  ____  .  ____  ____  .  ___
 72
65
 73
6
 40
88.900000000000006
 49
25.399999999999999
 74
0
 49
-12.699999999999999
 74
0
 49
25.399999999999999
 74
0
 49
-12.699999999999999
 74
0
 49
0.0
 74
0
 49
-12.699999999999999
 74
0
  0
LTYPE
  5
38
100
AcDbSymbolTableRecord
100
AcDbLinetypeTableRecord
  2
CENTER
 70
0
  3
Center ____ _ ____ _ ____ _ ____ _ ____ _ ____
 72
65
 73
4
 40
50.799999999999997
 49
31.75
 74
0
 49
-6.3499999999999996
 74
0
 49
6.3499999999999996
 74
0
 49
-6.3499999999999996
 74
0
  0
LTYPE
  5
39
100
AcDbSymbolTableRecord
100
AcDbLinetypeTableRecord
  2
CENTER2
 70
0
  3
Center (.5x) ___ _ ___ _ ___ _ ___ _ ___ _ ___
 72
65
 73
4
 40
28.574999999999999
 49
19.050000000000001
 74
0
 49
-3.1749999999999998
 74
0
 49
3.1749999999999998
 74
0
 49
-3.1749999999999998
 74
0
  0
LTYPE
  5
3A
100
AcDbSymbolTableRecord
100
AcDbLinetypeTableRecord
  2
CENTERX2
 70
0
  3
Center (2x) ________  __  ________  __  _____
 72
65
 73
4
 40
101.59999999999999
 49
63.5
 74
0
 49
-12.699999999999999
 74
0
 49
12.699999999999999
 74
0
 49
-12.699999999999999
 74
0
  0
LTYPE
  5
3B
100
AcDbSymbolTableRecord
100
AcDbLinetypeTableRecord
  2
DASHDOT
 70
0
  3
Dash dot __ . __ . __ . __ . __ . __ . __ . __
 72
65
 73
4
 40
25.399999999999999
 49
12.699999999999999
 74
0
 49
-6.3499999999999996
 74
0
 49
0.0
 74
0
 49
-6.3499999999999996
 74
0
  0
LTYPE
  5
3C
100
AcDbSymbolTableRecord
100
AcDbLinetypeTableRecord
  2
DASHDOT2
 70
0
  3
Dash dot (.5x) _._._._._._._._._._._._._._._.
 72
65
 73
4
 40
12.699999999999999
 49
6.3499999999999996
 74
0
 49
-3.1749999999999998
 74
0
 49
0.0
 74
0
 49
-3.1749999999999998
 74
0
  0
LTYPE
  5
3D
100
AcDbSymbolTableRecord
100
AcDbLinetypeTableRecord
  2
DASHDOTX2
 70
0
  3
Dash dot (2x) ____  .  ____  .  ____  .  ___
 72
65
 73
4
 40
50.799999999999997
 49
25.399999999999999
 74
0
 49
-12.699999999999999
 74
0
 49
0.0
 74
0
 49
-12.699999999999999
 74
0
  0
LTYPE
  5
3E
100
AcDbSymbolTableRecord
100
AcDbLinetypeTableRecord
  2
DASHED
 70
0
  3
Dashed __ __ __ __ __ __ __ __ __ __ __ __ __ _
 72
65
 73
2
 40
19.050000000000001
 49
12.699999999999999
 74
0
 49
-6.3499999999999996
 74
0
  0
LTYPE
  5
3F
100
AcDbSymbolTableRecord
100
AcDbLinetypeTableRecord
  2
DASHED2
 70
0
  3
Dashed (.5x) _ _ _ _ _ _ _ _ _ _ _ _ _ _ _ _ _
 72
65
 73
2
 40
9.5250000000000004
 49
6.3499999999999996
 74
0
 49
-3.1749999999999998
 74
0
  0
LTYPE
  5
40
100
AcDbSymbolTableRecord
100
AcDbLinetypeTableRecord
  2
DASHEDX2
 70
0
  3
Dashed (2x) ____  ____  ____  ____  ____  ___
 72
65
 73
2
 40
38.100000000000001
 49
25.399999999999999
 74
0
 49
-12.699999999999999
 74
0
  0
LTYPE
  5
41
100
AcDbSymbolTableRecord
100
AcDbLinetypeTableRecord
  2
DIVIDE
 70
0
  3
Divide ____ . . ____ . . ____ . . ____ . . ____
 72
65
 73
6
 40
31.75
 49
12.699999999999999
 74
0
 49
-6.3499999999999996
 74
0
 49
0.0
 74
0
 49
-6.3499999999999996
 74
0
 49
0.0
 74
0
 49
-6.3499999999999996
 74
0
  0
LTYPE
  5
42
100
AcDbSymbolTableRecord
100
AcDbLinetypeTableRecord
  2
DIVIDE2
 70
0
  3
Divide (.5x) __..__..__..__..__..__..__..__.._
 72
65
 73
6
 40
15.875
 49
6.3499999999999996
 74
0
 49
-3.1749999999999998
 74
0
 49
0.0
 74
0
 49
-3.1749999999999998
 74
0
 49
0.0
 74
0
 49
-3.1749999999999998
 74
0
  0
LTYPE
  5
43
100
AcDbSymbolTableRecord
100
AcDbLinetypeTableRecord
  2
DIVIDEX2
 70
0
  3
Divide (2x) ________  .  .  ________  .  .  _
 72
65
 73
6
 40
63.5
 49
25.399999999999999
 74
0
 49
-12.699999999999999
 74
0
 49
0.0
 74
0
 49
-12.699999999999999
 74
0
 49
0.0
 74
0
 49
-12.699999999999999
 74
0
  0
LTYPE
  5
44
100
AcDbSymbolTableRecord
100
AcDbLinetypeTableRecord
  2
DOT
 70
0
  3
Dot . . . . . . . . . . . . . . . . . . . . . .
 72
65
 73
2
 40
6.3499999999999996
 49
0.0
 74
0
 49
-6.3499999999999996
 74
0
  0
LTYPE
  5
45
100
AcDbSymbolTableRecord
100
AcDbLinetypeTableRecord
  2
DOT2
 70
0
  3
Dot (.5x) .....................................
 72
65
 73
2
 40
3.1749999999999998
 49
0.0
 74
0
 49
-3.1749999999999998
 74
0
  0
LTYPE
  5
46
100
AcDbSymbolTableRecord
100
AcDbLinetypeTableRecord
  2
DOTX2
 70
0
  3
Dot (2x) .  .  .  .  .  .  .  .  .  .  .  .  .
 72
65
 73
2
 40
12.699999999999999
 49
0.0
 74
0
 49
-12.699999999999999
 74
0
  0
ENDTAB
  0
TABLE
  2
LAYER
  5
2
100
AcDbSymbolTable
 70
3
  0
LAYER
  5
10
100
AcDbSymbolTableRecord
100
AcDbLayerTableRecord
  2
0
 70
0
 62
250
  6
CONTINUOUS
370
100
390
F
  0
LAYER
  5
47
100
AcDbSymbolTableRecord
100
AcDbLayerTableRecord
  2
color#ffffffff
 70
0
 62
7
  6
CONTINUOUS
370
100
390
F
  0
LAYER
  5
48
100
AcDbSymbolTableRecord
100
AcDbLayerTableRecord
  2
color#1f1a17ff
 70
0
 62
7
  6
CONTINUOUS
370
100
390
F
  0
ENDTAB
  0
TABLE
  2
STYLE
  5
3
100
AcDbSymbolTable
 70
1
  0
STYLE
  5
11
100
AcDbSymbolTableRecord
100
AcDbTextStyleTableRecord
  2
Standard
 70
0
 40
0.0
 41
0.75
 50
0.0
 71
0
 42
2.5
  3
txt
  4

  0
ENDTAB
  0
TABLE
  2
VIEW
  5
6
100
AcDbSymbolTable
 70
0
  0
ENDTAB
  0
TABLE
  2
UCS
  5
7
100
AcDbSymbolTable
 70
0
  0
ENDTAB
  0
TABLE
  2
APPID
  5
9
100
AcDbSymbolTable
 70
1
  0
APPID
  5
12
100
AcDbSymbolTableRecord
100
AcDbRegAppTableRecord
  2
ACAD
 70
0
  0
ENDTAB
  0
TABLE
  2
DIMSTYLE
  5
A
100
AcDbSymbolTable
 70
1
100
AcDbDimStyleTable
 71
0
  0
DIMSTYLE
105
27
100
AcDbSymbolTableRecord
100
AcDbDimStyleTableRecord
  2
Standard
 41
1.0
 42
1.0
 43
3.75
 44
1.0
 70
0
 73
0
 74
0
 77
1
 78
8
140
1.0
141
2.5
143
0.03937007874016
147
1.0
171
3
172
1
271
2
272
2
274
3
278
44
283
0
284
8
340
11
  0
ENDTAB
  0
TABLE
  2
BLOCK_RECORD
  5
1
100
AcDbSymbolTable
 70
1
  0
BLOCK_RECORD
  5
1F
100
AcDbSymbolTableRecord
100
AcDbBlockTableRecord
  2
*Model_Space
340
22
  0
BLOCK_RECORD
  5
1B
100
AcDbSymbolTableRecord
100
AcDbBlockTableRecord
  2
*Paper_Space
340
1E
  0
BLOCK_RECORD
  5
23
100
AcDbSymbolTableRecord
100
AcDbBlockTableRecord
  2
*Paper_Space0
340
26
  0
ENDTAB
  0
ENDSEC
  0
SECTION
  2
BLOCKS
  0
BLOCK
  5
20
100
AcDbEntity
  8
0
100
AcDbBlockBegin
  2
*Model_Space
 70
0
 10
0.0
 20
0.0
 30
0.0
  3
*Model_Space
  1

  0
ENDBLK
  5
21
100
AcDbEntity
  8
0
100
AcDbBlockEnd
  0
BLOCK
  5
1C
100
AcDbEntity
 67
1
  8
0
100
AcDbBlockBegin
  2
*Paper_Space
 70
0
 10
0.0
 20
0.0
 30
0.0
  3
*Paper_Space
  1

  0
ENDBLK
  5
1D
100
AcDbEntity
 67
1
  8
0
100
AcDbBlockEnd
  0
BLOCK
  5
24
100
AcDbEntity
  8
0
100
AcDbBlockBegin
  2
*Paper_Space0
 70
0
 10
0.0
 20
0.0
 30
0.0
  3
*Paper_Space0
  1

  0
ENDBLK
  5
25
100
AcDbEntity
  8
0
100
AcDbBlockEnd
  0
ENDSEC
  0
SECTION
  2
ENTITIES
  0
LINE
  5
49
100
AcDbEntity
100
AcDbLine
  8
color#1f1a17ff
 62
256
370
-1
  6
BYLAYER
 10
0.0406841947887331
 20
1.036631427261804
 30
0.0
 11
0.9734196628571618
 21
1.0347811246539604
 31
0.0
  0
LINE
  5
4A
100
AcDbEntity
100
AcDbLine
  8
color#1f1a17ff
 62
256
370
-1
  6
BYLAYER
 10
0.9734196628571618
 20
1.0347811246539604
 30
0.0
 11
0.9849424291502765
 21
0.9879004303511655
 31
0.0
  0
LINE
  5
4B
100
AcDbEntity
100
AcDbLine
  8
color#1f1a17ff
 62
256
370
-1
  6
BYLAYER
 10
0.9849424291502765
 20
0.9879004303511655
 30
0.0
 11
0.9953775105116068
 21
0.9568274460299007
 31
0.0
  0
LINE
  5
4C
100
AcDbEntity
100
AcDbLine
  8
color#1f1a17ff
 62
256
370
-1
  6
BYLAYER
 10
0.9953775105116068
 20
0.9568274460299007
 30
0.0
 11
1.0050463134928012
 21
0.9343316202029257
 31
0.0
  0
LINE
  5
4D
100
AcDbEntity
100
AcDbLine
  8
color#1f1a17ff
 62
256
370
-1
  6
BYLAYER
 10
1.0050463134928012
 20
0.9343316202029257
 30
0.0
 11
1.0125004523855881
 21
0.9199549794307881
 31
0.0
  0
LINE
  5
4E
100
AcDbEntity
100
AcDbLine
  8
color#1f1a17ff
 62
256
370
-1
  6
BYLAYER
 10
1.0125004523855881
 20
0.9199549794307881
 30
0.0
 11
1.0208426520740363
 21
0.9062212585182317
 31
0.0
  0
LINE
  5
4F
100
AcDbEntity
100
AcDbLine
  8
color#1f1a17ff
 62
256
370
-1
  6
BYLAYER
 10
1.0208426520740363
 20
0.9062212585182317
 30
0.0
 11
1.0253685902357597
 21
0.8996347230190028
 31
0.0
  0
LINE
  5
50
100
AcDbEntity
100
AcDbLine
  8
color#1f1a17ff
 62
256
370
-1
  6
BYLAYER
 10
1.0253685902357597
 20
0.8996347230190028
 30
0.0
 11
1.0301427222193491
 21
0.8932559934963171
 31
0.0
  0
LINE
  5
51
100
AcDbEntity
100
AcDbLine
  8
color#1f1a17ff
 62
256
370
-1
  6
BYLAYER
 10
1.0301427222193491
 20
0.8932559934963171
 30
0.0
 11
1.0351737742324552
 21
0.8871007619540572
 31
0.0
  0
LINE
  5
52
100
AcDbEntity
100
AcDbLine
  8
color#1f1a17ff
 62
256
370
-1
  6
BYLAYER
 10
1.0351737742324552
 20
0.8871007619540572
 30
0.0
 11
1.0404704724827283
 21
0.8811847203961054
 31
0.0
  0
LINE
  5
53
100
AcDbEntity
100
AcDbLine
  8
color#1f1a17ff
 62
256
370
-1
  6
BYLAYER
 10
1.0404704724827283
 20
0.8811847203961054
 30
0.0
 11
1.0460415431778185
 21
0.875523560826345
 31
0.0
  0
LINE
  5
54
100
AcDbEntity
100
AcDbLine
  8
color#1f1a17ff
 62
256
370
-1
  6
BYLAYER
 10
1.0460415431778185
 20
0.875523560826345
 30
0.0
 11
1.0518957125253763
 21
0.870132975248658
 31
0.0
  0
LINE
  5
55
100
AcDbEntity
100
AcDbLine
  8
color#1f1a17ff
 62
256
370
-1
  6
BYLAYER
 10
1.0518957125253763
 20
0.870132975248658
 30
0.0
 11
1.0580417067330516
 21
0.8650286556669274
 31
0.0
  0
LINE
  5
56
100
AcDbEntity
100
AcDbLine
  8
color#1f1a17ff
 62
256
370
-1
  6
BYLAYER
 10
1.0580417067330516
 20
0.8650286556669274
 30
0.0
 11
1.0644882520084951
 21
0.8602262940850355
 31
0.0
  0
LINE
  5
57
100
AcDbEntity
100
AcDbLine
  8
color#1f1a17ff
 62
256
370
-1
  6
BYLAYER
 10
1.0644882520084951
 20
0.8602262940850355
 30
0.0
 11
1.071244074559357
 21
0.8557415825068651
 31
0.0
  0
LINE
  5
58
100
AcDbEntity
100
AcDbLine
  8
color#1f1a17ff
 62
256
370
-1
  6
BYLAYER
 10
1.071244074559357
 20
0.8557415825068651
 30
0.0
 11
1.0783179005932875
 21
0.8515902129362987
 31
0.0
  0
LINE
  5
59
100
AcDbEntity
100
AcDbLine
  8
color#1f1a17ff
 62
256
370
-1
  6
BYLAYER
 10
1.0783179005932875
 20
0.8515902129362987
 30
0.0
 11
1.085718456317937
 21
0.8477878773772192
 31
0.0
  0
LINE
  5
5A
100
AcDbEntity
100
AcDbLine
  8
color#1f1a17ff
 62
256
370
-1
  6
BYLAYER
 10
1.085718456317937
 20
0.8477878773772192
 30
0.0
 11
1.0934544679409552
 21
0.8443502678335089
 31
0.0
  0
LINE
  5
5B
100
AcDbEntity
100
AcDbLine
  8
color#1f1a17ff
 62
256
370
-1
  6
BYLAYER
 10
1.0934544679409552
 20
0.8443502678335089
 30
0.0
 11
1.149050254582308
 21
0.8275394092428032
 31
0.0
  0
LINE
  5
5C
100
AcDbEntity
100
AcDbLine
  8
color#1f1a17ff
 62
256
370
-1
  6
BYLAYER
 10
1.149050254582308
 20
0.8275394092428032
 30
0.0
 11
1.1981531905505578
 21
0.8178540105775884
 31
0.0
  0
LINE
  5
5D
100
AcDbEntity
100
AcDbLine
  8
color#1f1a17ff
 62
256
370
-1
  6
BYLAYER
 10
1.1981531905505578
 20
0.8178540105775884
 30
0.0
 11
1.2396241665772603
 21
0.8135069104625092
 31
0.0
  0
LINE
  5
5E
100
AcDbEntity
100
AcDbLine
  8
color#1f1a17ff
 62
256
370
-1
  6
BYLAYER
 10
1.2396241665772603
 20
0.8135069104625092
 30
0.0
 11
1.2812169141132703
 21
0.8128629843246873
 31
0.0
  0
LINE
  5
5F
100
AcDbEntity
100
AcDbLine
  8
color#1f1a17ff
 62
256
370
-1
  6
BYLAYER
 10
1.2812169141132703
 20
0.8128629843246873
 30
0.0
 11
1.3143394368491963
 21
0.815214254441238
 31
0.0
  0
LINE
  5
60
100
AcDbEntity
100
AcDbLine
  8
color#1f1a17ff
 62
256
370
-1
  6
BYLAYER
 10
1.3143394368491963
 20
0.815214254441238
 30
0.0
 11
1.3307874526772598
 21
0.8173977737321404
 31
0.0
  0
LINE
  5
61
100
AcDbEntity
100
AcDbLine
  8
color#1f1a17ff
 62
256
370
-1
  6
BYLAYER
 10
1.3307874526772598
 20
0.8173977737321404
 30
0.0
 11
1.3354487761820395
 21
0.8295743452528701
 31
0.0
  0
LINE
  5
62
100
AcDbEntity
100
AcDbLine
  8
color#1f1a17ff
 62
256
370
-1
  6
BYLAYER
 10
1.3354487761820395
 20
0.8295743452528701
 30
0.0
 11
1.34087320645108
 21
0.8481774094010781
 31
0.0
  0
LINE
  5
63
100
AcDbEntity
100
AcDbLine
  8
color#1f1a17ff
 62
256
370
-1
  6
BYLAYER
 10
1.34087320645108
 20
0.8481774094010781
 30
0.0
 11
1.34654786934903
 21
0.879901810118163
 31
0.0
  0
LINE
  5
64
100
AcDbEntity
100
AcDbLine
  8
color#1f1a17ff
 62
256
370
-1
  6
BYLAYER
 10
1.34654786934903
 20
0.879901810118163
 30
0.0
 11
1.3547963349087679
 21
1.0030343258180445
 31
0.0
  0
LINE
  5
65
100
AcDbEntity
100
AcDbLine
  8
color#1f1a17ff
 62
256
370
-1
  6
BYLAYER
 10
1.3547963349087679
 20
1.0030343258180445
 30
0.0
 11
1.3872988171411882
 21
0.8979729240023083
 31
0.0
  0
LINE
  5
66
100
AcDbEntity
100
AcDbLine
  8
color#1f1a17ff
 62
256
370
-1
  6
BYLAYER
 10
1.3872988171411882
 20
0.8979729240023083
 30
0.0
 11
1.5015962293963347
 21
0.8979284484295025
 31
0.0
  0
LINE
  5
67
100
AcDbEntity
100
AcDbLine
  8
color#1f1a17ff
 62
256
370
-1
  6
BYLAYER
 10
1.5015962293963347
 20
0.8979284484295025
 30
0.0
 11
1.5340673514900358
 21
1.0031066867231273
 31
0.0
  0
LINE
  5
68
100
AcDbEntity
100
AcDbLine
  8
color#1f1a17ff
 62
256
370
-1
  6
BYLAYER
 10
1.5340673514900358
 20
1.0031066867231273
 30
0.0
 11
1.5432344825111923
 21
0.8735267898275638
 31
0.0
  0
LINE
  5
69
100
AcDbEntity
100
AcDbLine
  8
color#1f1a17ff
 62
256
370
-1
  6
BYLAYER
 10
1.5432344825111923
 20
0.8735267898275638
 30
0.0
 11
1.5480737340503121
 21
0.8482158803154294
 31
0.0
  0
LINE
  5
6A
100
AcDbEntity
100
AcDbLine
  8
color#1f1a17ff
 62
256
370
-1
  6
BYLAYER
 10
1.5480737340503121
 20
0.8482158803154294
 30
0.0
 11
1.5535463953393718
 21
0.8296375386142646
 31
0.0
  0
LINE
  5
6B
100
AcDbEntity
100
AcDbLine
  8
color#1f1a17ff
 62
256
370
-1
  6
BYLAYER
 10
1.5535463953393718
 20
0.8296375386142646
 30
0.0
 11
1.558260767349043
 21
0.817488009654495
 31
0.0
  0
LINE
  5
6C
100
AcDbEntity
100
AcDbLine
  8
color#1f1a17ff
 62
256
370
-1
  6
BYLAYER
 10
1.558260767349043
 20
0.817488009654495
 30
0.0
 11
1.5911988222068512
 21
0.8137122511256794
 31
0.0
  0
LINE
  5
6D
100
AcDbEntity
100
AcDbLine
  8
color#1f1a17ff
 62
256
370
-1
  6
BYLAYER
 10
1.5911988222068512
 20
0.8137122511256794
 30
0.0
 11
1.6243721698067284
 21
0.8126585245895575
 31
0.0
  0
LINE
  5
6E
100
AcDbEntity
100
AcDbLine
  8
color#1f1a17ff
 62
256
370
-1
  6
BYLAYER
 10
1.6243721698067284
 20
0.8126585245895575
 30
0.0
 11
1.6658984198520728
 21
0.8148869719073595
 31
0.0
  0
LINE
  5
6F
100
AcDbEntity
100
AcDbLine
  8
color#1f1a17ff
 62
256
370
-1
  6
BYLAYER
 10
1.6658984198520728
 20
0.8148869719073595
 30
0.0
 11
1.7153581344598756
 21
0.822283672837286
 31
0.0
  0
LINE
  5
70
100
AcDbEntity
100
AcDbLine
  8
color#1f1a17ff
 62
256
370
-1
  6
BYLAYER
 10
1.7153581344598756
 20
0.822283672837286
 30
0.0
 11
1.7717888399238502
 21
0.8366342658554105
 31
0.0
  0
LINE
  5
71
100
AcDbEntity
100
AcDbLine
  8
color#1f1a17ff
 62
256
370
-1
  6
BYLAYER
 10
1.7717888399238502
 20
0.8366342658554105
 30
0.0
 11
1.7953313727651081
 21
0.8444390083781671
 31
0.0
  0
LINE
  5
72
100
AcDbEntity
100
AcDbLine
  8
color#1f1a17ff
 62
256
370
-1
  6
BYLAYER
 10
1.7953313727651081
 20
0.8444390083781671
 30
0.0
 11
1.8030836106747812
 21
0.8478471534583351
 31
0.0
  0
LINE
  5
73
100
AcDbEntity
100
AcDbLine
  8
color#1f1a17ff
 62
256
370
-1
  6
BYLAYER
 10
1.8030836106747812
 20
0.8478471534583351
 30
0.0
 11
1.8104984035578624
 21
0.8516239387639722
 31
0.0
  0
LINE
  5
74
100
AcDbEntity
100
AcDbLine
  8
color#1f1a17ff
 62
256
370
-1
  6
BYLAYER
 10
1.8104984035578624
 20
0.8516239387639722
 30
0.0
 11
1.8175845945327802
 21
0.8557534436178704
 31
0.0
  0
LINE
  5
75
100
AcDbEntity
100
AcDbLine
  8
color#1f1a17ff
 62
256
370
-1
  6
BYLAYER
 10
1.8175845945327802
 20
0.8557534436178704
 30
0.0
 11
1.8243510267179581
 21
0.860219747342822
 31
0.0
  0
LINE
  5
76
100
AcDbEntity
100
AcDbLine
  8
color#1f1a17ff
 62
256
370
-1
  6
BYLAYER
 10
1.8243510267179581
 20
0.860219747342822
 30
0.0
 11
1.8308065432318243
 21
0.8650069292616188
 31
0.0
  0
LINE
  5
77
100
AcDbEntity
100
AcDbLine
  8
color#1f1a17ff
 62
256
370
-1
  6
BYLAYER
 10
1.8308065432318243
 20
0.8650069292616188
 30
0.0
 11
1.8369599871928024
 21
0.8700990686970527
 31
0.0
  0
LINE
  5
78
100
AcDbEntity
100
AcDbLine
  8
color#1f1a17ff
 62
256
370
-1
  6
BYLAYER
 10
1.8369599871928024
 20
0.8700990686970527
 30
0.0
 11
1.8428202017193189
 21
0.875480244971916
 31
0.0
  0
LINE
  5
79
100
AcDbEntity
100
AcDbLine
  8
color#1f1a17ff
 62
256
370
-1
  6
BYLAYER
 10
1.8428202017193189
 20
0.875480244971916
 30
0.0
 11
1.8483960299298008
 21
0.8811345374090007
 31
0.0
  0
LINE
  5
7A
100
AcDbEntity
100
AcDbLine
  8
color#1f1a17ff
 62
256
370
-1
  6
BYLAYER
 10
1.8483960299298008
 20
0.8811345374090007
 30
0.0
 11
1.8536963149426722
 21
0.8870460253310989
 31
0.0
  0
LINE
  5
7B
100
AcDbEntity
100
AcDbLine
  8
color#1f1a17ff
 62
256
370
-1
  6
BYLAYER
 10
1.8536963149426722
 20
0.8870460253310989
 30
0.0
 11
1.8587298998763599
 21
0.8931987880610026
 31
0.0
  0
LINE
  5
7C
100
AcDbEntity
100
AcDbLine
  8
color#1f1a17ff
 62
256
370
-1
  6
BYLAYER
 10
1.8587298998763599
 20
0.8931987880610026
 30
0.0
 11
1.8635056278492896
 21
0.8995769049215039
 31
0.0
  0
LINE
  5
7D
100
AcDbEntity
100
AcDbLine
  8
color#1f1a17ff
 62
256
370
-1
  6
BYLAYER
 10
1.8635056278492896
 20
0.8995769049215039
 30
0.0
 11
1.8723188853865789
 21
0.9129455183254668
 31
0.0
  0
LINE
  5
7E
100
AcDbEntity
100
AcDbLine
  8
color#1f1a17ff
 62
256
370
-1
  6
BYLAYER
 10
1.8723188853865789
 20
0.9129455183254668
 30
0.0
 11
1.8802068325019459
 21
0.9270245001253247
 31
0.0
  0
LINE
  5
7F
100
AcDbEntity
100
AcDbLine
  8
color#1f1a17ff
 62
256
370
-1
  6
BYLAYER
 10
1.8802068325019459
 20
0.9270245001253247
 30
0.0
 11
1.8872402141427973
 21
0.9416864849034137
 31
0.0
  0
LINE
  5
80
100
AcDbEntity
100
AcDbLine
  8
color#1f1a17ff
 62
256
370
-1
  6
BYLAYER
 10
1.8872402141427973
 20
0.9416864849034137
 30
0.0
 11
1.8963427309118117
 21
0.9644939808035912
 31
0.0
  0
LINE
  5
81
100
AcDbEntity
100
AcDbLine
  8
color#1f1a17ff
 62
256
370
-1
  6
BYLAYER
 10
1.8963427309118117
 20
0.9644939808035912
 30
0.0
 11
1.908242984909188
 21
1.0036171454448082
 31
0.0
  0
LINE
  5
82
100
AcDbEntity
100
AcDbLine
  8
color#1f1a17ff
 62
256
370
-1
  6
BYLAYER
 10
1.908242984909188
 20
1.0036171454448082
 30
0.0
 11
1.9154563460778675
 21
1.0347689927256385
 31
0.0
  0
LINE
  5
83
100
AcDbEntity
100
AcDbLine
  8
color#1f1a17ff
 62
256
370
-1
  6
BYLAYER
 10
1.9154563460778675
 20
1.0347689927256385
 30
0.0
 11
2.8482227278224292
 21
1.0365881454208963
 31
0.0
  0
LINE
  5
84
100
AcDbEntity
100
AcDbLine
  8
color#1f1a17ff
 62
256
370
-1
  6
BYLAYER
 10
2.8482227278224292
 20
1.0365881454208963
 30
0.0
 11
2.7579786405598314
 21
0.9949458674259109
 31
0.0
  0
LINE
  5
85
100
AcDbEntity
100
AcDbLine
  8
color#1f1a17ff
 62
256
370
-1
  6
BYLAYER
 10
2.7579786405598314
 20
0.9949458674259109
 30
0.0
 11
2.7133197087190633
 21
0.9719814950080357
 31
0.0
  0
LINE
  5
86
100
AcDbEntity
100
AcDbLine
  8
color#1f1a17ff
 62
256
370
-1
  6
BYLAYER
 10
2.7133197087190633
 20
0.9719814950080357
 30
0.0
 11
2.6840983823441555
 21
0.955632643162913
 31
0.0
  0
LINE
  5
87
100
AcDbEntity
100
AcDbLine
  8
color#1f1a17ff
 62
256
370
-1
  6
BYLAYER
 10
2.6840983823441555
 20
0.955632643162913
 30
0.0
 11
2.6555114303069365
 21
0.9383274034554024
 31
0.0
  0
LINE
  5
88
100
AcDbEntity
100
AcDbLine
  8
color#1f1a17ff
 62
256
370
-1
  6
BYLAYER
 10
2.6555114303069365
 20
0.9383274034554024
 30
0.0
 11
2.6415076317513551
 21
0.929282663597228
 31
0.0
  0
LINE
  5
89
100
AcDbEntity
100
AcDbLine
  8
color#1f1a17ff
 62
256
370
-1
  6
BYLAYER
 10
2.6415076317513551
 20
0.929282663597228
 30
0.0
 11
2.6277245712838688
 21
0.9199586573062278
 31
0.0
  0
LINE
  5
8A
100
AcDbEntity
100
AcDbLine
  8
color#1f1a17ff
 62
256
370
-1
  6
BYLAYER
 10
2.6277245712838688
 20
0.9199586573062278
 30
0.0
 11
2.6141829637390348
 21
0.9103419947599925
 31
0.0
  0
LINE
  5
8B
100
AcDbEntity
100
AcDbLine
  8
color#1f1a17ff
 62
256
370
-1
  6
BYLAYER
 10
2.6141829637390348
 20
0.9103419947599925
 30
0.0
 11
2.6009035239514118
 21
0.9004192861361123
 31
0.0
  0
LINE
  5
8C
100
AcDbEntity
100
AcDbLine
  8
color#1f1a17ff
 62
256
370
-1
  6
BYLAYER
 10
2.6009035239514118
 20
0.9004192861361123
 30
0.0
 11
2.5879069667555572
 21
0.8901771416121778
 31
0.0
  0
LINE
  5
8D
100
AcDbEntity
100
AcDbLine
  8
color#1f1a17ff
 62
256
370
-1
  6
BYLAYER
 10
2.5879069667555572
 20
0.8901771416121778
 30
0.0
 11
2.5752140069860285
 21
0.8796021713657793
 31
0.0
  0
LINE
  5
8E
100
AcDbEntity
100
AcDbLine
  8
color#1f1a17ff
 62
256
370
-1
  6
BYLAYER
 10
2.5752140069860285
 20
0.8796021713657793
 30
0.0
 11
2.5628453594773837
 21
0.8686809855745072
 31
0.0
  0
LINE
  5
8F
100
AcDbEntity
100
AcDbLine
  8
color#1f1a17ff
 62
256
370
-1
  6
BYLAYER
 10
2.5628453594773837
 20
0.8686809855745072
 30
0.0
 11
2.5508217390641792
 21
0.8574001944159519
 31
0.0
  0
LINE
  5
90
100
AcDbEntity
100
AcDbLine
  8
color#1f1a17ff
 62
256
370
-1
  6
BYLAYER
 10
2.5508217390641792
 20
0.8574001944159519
 30
0.0
 11
2.5391638605809743
 21
0.845746408067704
 31
0.0
  0
LINE
  5
91
100
AcDbEntity
100
AcDbLine
  8
color#1f1a17ff
 62
256
370
-1
  6
BYLAYER
 10
2.5391638605809743
 20
0.845746408067704
 30
0.0
 11
2.5278924388623256
 21
0.8337062367073538
 31
0.0
  0
LINE
  5
92
100
AcDbEntity
100
AcDbLine
  8
color#1f1a17ff
 62
256
370
-1
  6
BYLAYER
 10
2.5278924388623256
 20
0.8337062367073538
 30
0.0
 11
2.5170281887427914
 21
0.8212662905124917
 31
0.0
  0
LINE
  5
93
100
AcDbEntity
100
AcDbLine
  8
color#1f1a17ff
 62
256
370
-1
  6
BYLAYER
 10
2.5170281887427914
 20
0.8212662905124917
 30
0.0
 11
2.5065918250569283
 21
0.8084131796607081
 31
0.0
  0
LINE
  5
94
100
AcDbEntity
100
AcDbLine
  8
color#1f1a17ff
 62
256
370
-1
  6
BYLAYER
 10
2.5065918250569283
 20
0.8084131796607081
 30
0.0
 11
2.4966040626392956
 21
0.7951335143295936
 31
0.0
  0
LINE
  5
95
100
AcDbEntity
100
AcDbLine
  8
color#1f1a17ff
 62
256
370
-1
  6
BYLAYER
 10
2.4966040626392956
 20
0.7951335143295936
 30
0.0
 11
2.4870856163244497
 21
0.7814139046967383
 31
0.0
  0
LINE
  5
96
100
AcDbEntity
100
AcDbLine
  8
color#1f1a17ff
 62
256
370
-1
  6
BYLAYER
 10
2.4870856163244497
 20
0.7814139046967383
 30
0.0
 11
2.4780572009469481
 21
0.7672409609397329
 31
0.0
  0
LINE
  5
97
100
AcDbEntity
100
AcDbLine
  8
color#1f1a17ff
 62
256
370
-1
  6
BYLAYER
 10
2.4780572009469481
 20
0.7672409609397329
 30
0.0
 11
2.4695395313413497
 21
0.7526012932361678
 31
0.0
  0
LINE
  5
98
100
AcDbEntity
100
AcDbLine
  8
color#1f1a17ff
 62
256
370
-1
  6
BYLAYER
 10
2.4695395313413497
 20
0.7526012932361678
 30
0.0
 11
2.464589826519429
 21
0.7438649852083396
 31
0.0
  0
LINE
  5
99
100
AcDbEntity
100
AcDbLine
  8
color#1f1a17ff
 62
256
370
-1
  6
BYLAYER
 10
2.464589826519429
 20
0.7438649852083396
 30
0.0
 11
2.459993433541932
 21
0.7350148009882183
 31
0.0
  0
LINE
  5
9A
100
AcDbEntity
100
AcDbLine
  8
color#1f1a17ff
 62
256
370
-1
  6
BYLAYER
 10
2.459993433541932
 20
0.7350148009882183
 30
0.0
 11
2.4557407285429966
 21
0.7260566458084077
 31
0.0
  0
LINE
  5
9B
100
AcDbEntity
100
AcDbLine
  8
color#1f1a17ff
 62
256
370
-1
  6
BYLAYER
 10
2.4557407285429966
 20
0.7260566458084077
 30
0.0
 11
2.4518220876567565
 21
0.7169964249015121
 31
0.0
  0
LINE
  5
9C
100
AcDbEntity
100
AcDbLine
  8
color#1f1a17ff
 62
256
370
-1
  6
BYLAYER
 10
2.4518220876567565
 20
0.7169964249015121
 30
0.0
 11
2.4482278870173468
 21
0.707840043500135
 31
0.0
  0
LINE
  5
9D
100
AcDbEntity
100
AcDbLine
  8
color#1f1a17ff
 62
256
370
-1
  6
BYLAYER
 10
2.4482278870173468
 20
0.707840043500135
 30
0.0
 11
2.4449485027589035
 21
0.6985934068368808
 31
0.0
  0
LINE
  5
9E
100
AcDbEntity
100
AcDbLine
  8
color#1f1a17ff
 62
256
370
-1
  6
BYLAYER
 10
2.4449485027589035
 20
0.6985934068368808
 30
0.0
 11
2.4392956879214527
 21
0.6798529886551563
 31
0.0
  0
LINE
  5
9F
100
AcDbEntity
100
AcDbLine
  8
color#1f1a17ff
 62
256
370
-1
  6
BYLAYER
 10
2.4392956879214527
 20
0.6798529886551563
 30
0.0
 11
2.4347866522174852
 21
0.6608224122171705
 31
0.0
  0
LINE
  5
A0
100
AcDbEntity
100
AcDbLine
  8
color#1f1a17ff
 62
256
370
-1
  6
BYLAYER
 10
2.4347866522174852
 20
0.6608224122171705
 30
0.0
 11
2.4313444047200825
 21
0.6415489193837551
 31
0.0
  0
LINE
  5
A1
100
AcDbEntity
100
AcDbLine
  8
color#1f1a17ff
 62
256
370
-1
  6
BYLAYER
 10
2.4313444047200825
 20
0.6415489193837551
 30
0.0
 11
2.4288919545023226
 21
0.6220797520157422
 31
0.0
  0
LINE
  5
A2
100
AcDbEntity
100
AcDbLine
  8
color#1f1a17ff
 62
256
370
-1
  6
BYLAYER
 10
2.4288919545023226
 20
0.6220797520157422
 30
0.0
 11
2.4269007314223794
 21
0.5926124527819217
 31
0.0
  0
LINE
  5
A3
100
AcDbEntity
100
AcDbLine
  8
color#1f1a17ff
 62
256
370
-1
  6
BYLAYER
 10
2.4269007314223794
 20
0.5926124527819217
 30
0.0
 11
2.4267034782577137
 21
0.5629706213124349
 31
0.0
  0
LINE
  5
A4
100
AcDbEntity
100
AcDbLine
  8
color#1f1a17ff
 62
256
370
-1
  6
BYLAYER
 10
2.4267034782577137
 20
0.5629706213124349
 30
0.0
 11
2.4296555726315674
 21
0.5136127698416581
 31
0.0
  0
LINE
  5
A5
100
AcDbEntity
100
AcDbLine
  8
color#1f1a17ff
 62
256
370
-1
  6
BYLAYER
 10
2.4296555726315674
 20
0.5136127698416581
 30
0.0
 11
2.4342770944718417
 21
0.4745923462930534
 31
0.0
  0
LINE
  5
A6
100
AcDbEntity
100
AcDbLine
  8
color#1f1a17ff
 62
256
370
-1
  6
BYLAYER
 10
2.4342770944718417
 20
0.4745923462930534
 30
0.0
 11
2.3086908665399641
 21
0.4799204761553343
 31
0.0
  0
LINE
  5
A7
100
AcDbEntity
100
AcDbLine
  8
color#1f1a17ff
 62
256
370
-1
  6
BYLAYER
 10
2.3086908665399641
 20
0.4799204761553343
 30
0.0
 11
2.2580564423001968
 21
0.4808657190451688
 31
0.0
  0
LINE
  5
A8
100
AcDbEntity
100
AcDbLine
  8
color#1f1a17ff
 62
256
370
-1
  6
BYLAYER
 10
2.2580564423001968
 20
0.4808657190451688
 30
0.0
 11
2.2073398156129236
 21
0.4808220447537248
 31
0.0
  0
LINE
  5
A9
100
AcDbEntity
100
AcDbLine
  8
color#1f1a17ff
 62
256
370
-1
  6
BYLAYER
 10
2.2073398156129236
 20
0.4808220447537248
 30
0.0
 11
2.1819811619209797
 21
0.4803645308064333
 31
0.0
  0
LINE
  5
AA
100
AcDbEntity
100
AcDbLine
  8
color#1f1a17ff
 62
256
370
-1
  6
BYLAYER
 10
2.1819811619209797
 20
0.4803645308064333
 30
0.0
 11
2.1566385403005697
 21
0.4795819881335138
 31
0.0
  0
LINE
  5
AB
100
AcDbEntity
100
AcDbLine
  8
color#1f1a17ff
 62
256
370
-1
  6
BYLAYER
 10
2.1566385403005697
 20
0.4795819881335138
 30
0.0
 11
2.131324144979498
 21
0.4784484835915302
 31
0.0
  0
LINE
  5
AC
100
AcDbEntity
100
AcDbLine
  8
color#1f1a17ff
 62
256
370
-1
  6
BYLAYER
 10
2.131324144979498
 20
0.4784484835915302
 30
0.0
 11
2.1060501701855658
 21
0.4769380840370466
 31
0.0
  0
LINE
  5
AD
100
AcDbEntity
100
AcDbLine
  8
color#1f1a17ff
 62
256
370
-1
  6
BYLAYER
 10
2.1060501701855658
 20
0.4769380840370466
 30
0.0
 11
2.0808288101465795
 21
0.4750248563266267
 31
0.0
  0
LINE
  5
AE
100
AcDbEntity
100
AcDbLine
  8
color#1f1a17ff
 62
256
370
-1
  6
BYLAYER
 10
2.0808288101465795
 20
0.4750248563266267
 30
0.0
 11
2.0556722590903402
 21
0.4726828673168343
 31
0.0
  0
LINE
  5
AF
100
AcDbEntity
100
AcDbLine
  8
color#1f1a17ff
 62
256
370
-1
  6
BYLAYER
 10
2.0556722590903402
 20
0.4726828673168343
 30
0.0
 11
2.0305927112446533
 21
0.4698861838642334
 31
0.0
  0
LINE
  5
B0
100
AcDbEntity
100
AcDbLine
  8
color#1f1a17ff
 62
256
370
-1
  6
BYLAYER
 10
2.0305927112446533
 20
0.4698861838642334
 30
0.0
 11
2.0056023608373215
 21
0.466608872825388
 31
0.0
  0
LINE
  5
B1
100
AcDbEntity
100
AcDbLine
  8
color#1f1a17ff
 62
256
370
-1
  6
BYLAYER
 10
2.0056023608373215
 20
0.466608872825388
 30
0.0
 11
1.980713402096149
 21
0.4628250010568616
 31
0.0
  0
LINE
  5
B2
100
AcDbEntity
100
AcDbLine
  8
color#1f1a17ff
 62
256
370
-1
  6
BYLAYER
 10
1.980713402096149
 20
0.4628250010568616
 30
0.0
 11
1.9559380292489388
 21
0.4585086354152185
 31
0.0
  0
LINE
  5
B3
100
AcDbEntity
100
AcDbLine
  8
color#1f1a17ff
 62
256
370
-1
  6
BYLAYER
 10
1.9559380292489388
 20
0.4585086354152185
 30
0.0
 11
1.931288436523495
 21
0.4536338427570221
 31
0.0
  0
LINE
  5
B4
100
AcDbEntity
100
AcDbLine
  8
color#1f1a17ff
 62
256
370
-1
  6
BYLAYER
 10
1.931288436523495
 20
0.4536338427570221
 30
0.0
 11
1.9067768181476208
 21
0.4481746899388367
 31
0.0
  0
LINE
  5
B5
100
AcDbEntity
100
AcDbLine
  8
color#1f1a17ff
 62
256
370
-1
  6
BYLAYER
 10
1.9067768181476208
 20
0.4481746899388367
 30
0.0
 11
1.8824153683491203
 21
0.4421052438172259
 31
0.0
  0
LINE
  5
B6
100
AcDbEntity
100
AcDbLine
  8
color#1f1a17ff
 62
256
370
-1
  6
BYLAYER
 10
1.8824153683491203
 20
0.4421052438172259
 30
0.0
 11
1.8582162813557963
 21
0.4353995712487538
 31
0.0
  0
LINE
  5
B7
100
AcDbEntity
100
AcDbLine
  8
color#1f1a17ff
 62
256
370
-1
  6
BYLAYER
 10
1.8582162813557963
 20
0.4353995712487538
 30
0.0
 11
1.8341917513954533
 21
0.4280317390899842
 31
0.0
  0
LINE
  5
B8
100
AcDbEntity
100
AcDbLine
  8
color#1f1a17ff
 62
256
370
-1
  6
BYLAYER
 10
1.8341917513954533
 20
0.4280317390899842
 30
0.0
 11
1.8103539726958939
 21
0.419975814197481
 31
0.0
  0
LINE
  5
B9
100
AcDbEntity
100
AcDbLine
  8
color#1f1a17ff
 62
256
370
-1
  6
BYLAYER
 10
1.8103539726958939
 20
0.419975814197481
 30
0.0
 11
1.7867151394849232
 21
0.4112058634278079
 31
0.0
  0
LINE
  5
BA
100
AcDbEntity
100
AcDbLine
  8
color#1f1a17ff
 62
256
370
-1
  6
BYLAYER
 10
1.7867151394849232
 20
0.4112058634278079
 30
0.0
 11
1.7632874459903429
 21
0.401695953637529
 31
0.0
  0
LINE
  5
BB
100
AcDbEntity
100
AcDbLine
  8
color#1f1a17ff
 62
256
370
-1
  6
BYLAYER
 10
1.7632874459903429
 20
0.401695953637529
 30
0.0
 11
1.7400830864399581
 21
0.391420151683208
 31
0.0
  0
LINE
  5
BC
100
AcDbEntity
100
AcDbLine
  8
color#1f1a17ff
 62
256
370
-1
  6
BYLAYER
 10
1.7400830864399581
 20
0.391420151683208
 30
0.0
 11
1.7171142550615717
 21
0.3803525244214088
 31
0.0
  0
LINE
  5
BD
100
AcDbEntity
100
AcDbLine
  8
color#1f1a17ff
 62
256
370
-1
  6
BYLAYER
 10
1.7171142550615717
 20
0.3803525244214088
 30
0.0
 11
1.7035046197845349
 21
0.3734641025755215
 31
0.0
  0
LINE
  5
BE
100
AcDbEntity
100
AcDbLine
  8
color#1f1a17ff
 62
256
370
-1
  6
BYLAYER
 10
1.7035046197845349
 20
0.3734641025755215
 30
0.0
 11
1.6901634193117783
 21
0.3661616094408387
 31
0.0
  0
LINE
  5
BF
100
AcDbEntity
100
AcDbLine
  8
color#1f1a17ff
 62
256
370
-1
  6
BYLAYER
 10
1.6901634193117783
 20
0.3661616094408387
 30
0.0
 11
1.6770942150782846
 21
0.3584559393497447
 31
0.0
  0
LINE
  5
C0
100
AcDbEntity
100
AcDbLine
  8
color#1f1a17ff
 62
256
370
-1
  6
BYLAYER
 10
1.6770942150782846
 20
0.3584559393497447
 30
0.0
 11
1.6643005685190329
 21
0.3503579866346255
 31
0.0
  0
LINE
  5
C1
100
AcDbEntity
100
AcDbLine
  8
color#1f1a17ff
 62
256
370
-1
  6
BYLAYER
 10
1.6643005685190329
 20
0.3503579866346255
 30
0.0
 11
1.6517860410690057
 21
0.3418786456278656
 31
0.0
  0
LINE
  5
C2
100
AcDbEntity
100
AcDbLine
  8
color#1f1a17ff
 62
256
370
-1
  6
BYLAYER
 10
1.6517860410690057
 20
0.3418786456278656
 30
0.0
 11
1.6395541941631815
 21
0.3330288106618506
 31
0.0
  0
LINE
  5
C3
100
AcDbEntity
100
AcDbLine
  8
color#1f1a17ff
 62
256
370
-1
  6
BYLAYER
 10
1.6395541941631815
 20
0.3330288106618506
 30
0.0
 11
1.6276085892365411
 21
0.3238193760689661
 31
0.0
  0
LINE
  5
C4
100
AcDbEntity
100
AcDbLine
  8
color#1f1a17ff
 62
256
370
-1
  6
BYLAYER
 10
1.6276085892365411
 20
0.3238193760689661
 30
0.0
 11
1.6159527877240669
 21
0.3142612361815963
 31
0.0
  0
LINE
  5
C5
100
AcDbEntity
100
AcDbLine
  8
color#1f1a17ff
 62
256
370
-1
  6
BYLAYER
 10
1.6159527877240669
 20
0.3142612361815963
 30
0.0
 11
1.6045903510607384
 21
0.3043652853321272
 31
0.0
  0
LINE
  5
C6
100
AcDbEntity
100
AcDbLine
  8
color#1f1a17ff
 62
256
370
-1
  6
BYLAYER
 10
1.6045903510607384
 20
0.3043652853321272
 30
0.0
 11
1.593524840681535
 21
0.2941424178529442
 31
0.0
  0
LINE
  5
C7
100
AcDbEntity
100
AcDbLine
  8
color#1f1a17ff
 62
256
370
-1
  6
BYLAYER
 10
1.593524840681535
 20
0.2941424178529442
 30
0.0
 11
1.5827598180214393
 21
0.2836035280764316
 31
0.0
  0
LINE
  5
C8
100
AcDbEntity
100
AcDbLine
  8
color#1f1a17ff
 62
256
370
-1
  6
BYLAYER
 10
1.5827598180214393
 20
0.2836035280764316
 30
0.0
 11
1.5722988445154313
 21
0.2727595103349753
 31
0.0
  0
LINE
  5
C9
100
AcDbEntity
100
AcDbLine
  8
color#1f1a17ff
 62
256
370
-1
  6
BYLAYER
 10
1.5722988445154313
 20
0.2727595103349753
 30
0.0
 11
1.5621454815984908
 21
0.2616212589609605
 31
0.0
  0
LINE
  5
CA
100
AcDbEntity
100
AcDbLine
  8
color#1f1a17ff
 62
256
370
-1
  6
BYLAYER
 10
1.5621454815984908
 20
0.2616212589609605
 30
0.0
 11
1.5523032907055991
 21
0.2501996682867723
 31
0.0
  0
LINE
  5
CB
100
AcDbEntity
100
AcDbLine
  8
color#1f1a17ff
 62
256
370
-1
  6
BYLAYER
 10
1.5523032907055991
 20
0.2501996682867723
 30
0.0
 11
1.542775833271737
 21
0.2385056326447958
 31
0.0
  0
LINE
  5
CC
100
AcDbEntity
100
AcDbLine
  8
color#1f1a17ff
 62
256
370
-1
  6
BYLAYER
 10
1.542775833271737
 20
0.2385056326447958
 30
0.0
 11
1.5335666707318847
 21
0.2265500463674163
 31
0.0
  0
LINE
  5
CD
100
AcDbEntity
100
AcDbLine
  8
color#1f1a17ff
 62
256
370
-1
  6
BYLAYER
 10
1.5335666707318847
 20
0.2265500463674163
 30
0.0
 11
1.5246793645210226
 21
0.214343803787019
 31
0.0
  0
LINE
  5
CE
100
AcDbEntity
100
AcDbLine
  8
color#1f1a17ff
 62
256
370
-1
  6
BYLAYER
 10
1.5246793645210226
 20
0.214343803787019
 30
0.0
 11
1.5161174760741316
 21
0.2018977992359892
 31
0.0
  0
LINE
  5
CF
100
AcDbEntity
100
AcDbLine
  8
color#1f1a17ff
 62
256
370
-1
  6
BYLAYER
 10
1.5161174760741316
 20
0.2018977992359892
 30
0.0
 11
1.5078845668261927
 21
0.1892229270467119
 31
0.0
  0
LINE
  5
D0
100
AcDbEntity
100
AcDbLine
  8
color#1f1a17ff
 62
256
370
-1
  6
BYLAYER
 10
1.5078845668261927
 20
0.1892229270467119
 30
0.0
 11
1.4999841982121862
 21
0.1763300815515725
 31
0.0
  0
LINE
  5
D1
100
AcDbEntity
100
AcDbLine
  8
color#1f1a17ff
 62
256
370
-1
  6
BYLAYER
 10
1.4999841982121862
 20
0.1763300815515725
 30
0.0
 11
1.4924199316670919
 21
0.1632301570829563
 31
0.0
  0
LINE
  5
D2
100
AcDbEntity
100
AcDbLine
  8
color#1f1a17ff
 62
256
370
-1
  6
BYLAYER
 10
1.4924199316670919
 20
0.1632301570829563
 30
0.0
 11
1.4851953286258919
 21
0.1499340479732483
 31
0.0
  0
LINE
  5
D3
100
AcDbEntity
100
AcDbLine
  8
color#1f1a17ff
 62
256
370
-1
  6
BYLAYER
 10
1.4851953286258919
 20
0.1499340479732483
 30
0.0
 11
1.4783139505235654
 21
0.1364526485548336
 31
0.0
  0
LINE
  5
D4
100
AcDbEntity
100
AcDbLine
  8
color#1f1a17ff
 62
256
370
-1
  6
BYLAYER
 10
1.4783139505235654
 20
0.1364526485548336
 30
0.0
 11
1.471779358795094
 21
0.1227968531600979
 31
0.0
  0
LINE
  5
D5
100
AcDbEntity
100
AcDbLine
  8
color#1f1a17ff
 62
256
370
-1
  6
BYLAYER
 10
1.471779358795094
 20
0.1227968531600979
 30
0.0
 11
1.4655951148754576
 21
0.1089775561214261
 31
0.0
  0
LINE
  5
D6
100
AcDbEntity
100
AcDbLine
  8
color#1f1a17ff
 62
256
370
-1
  6
BYLAYER
 10
1.4655951148754576
 20
0.1089775561214261
 30
0.0
 11
1.4597647801996374
 21
0.0950056517712032
 31
0.0
  0
LINE
  5
D7
100
AcDbEntity
100
AcDbLine
  8
color#1f1a17ff
 62
256
370
-1
  6
BYLAYER
 10
1.4597647801996374
 20
0.0950056517712032
 30
0.0
 11
1.4542919162026138
 21
0.0808920344418149
 31
0.0
  0
LINE
  5
D8
100
AcDbEntity
100
AcDbLine
  8
color#1f1a17ff
 62
256
370
-1
  6
BYLAYER
 10
1.4542919162026138
 20
0.0808920344418149
 30
0.0
 11
1.4491800843193672
 21
0.0666475984656459
 31
0.0
  0
LINE
  5
D9
100
AcDbEntity
100
AcDbLine
  8
color#1f1a17ff
 62
256
370
-1
  6
BYLAYER
 10
1.4491800843193672
 20
0.0666475984656459
 30
0.0
 11
1.4444328459848783
 21
0.052283238175082
 31
0.0
  0
LINE
  5
DA
100
AcDbEntity
100
AcDbLine
  8
color#1f1a17ff
 62
256
370
-1
  6
BYLAYER
 10
1.4444328459848783
 20
0.052283238175082
 30
0.0
 11
1.4396841639292837
 21
0.0666421949251996
 31
0.0
  0
LINE
  5
DB
100
AcDbEntity
100
AcDbLine
  8
color#1f1a17ff
 62
256
370
-1
  6
BYLAYER
 10
1.4396841639292837
 20
0.0666421949251996
 30
0.0
 11
1.4345717375082589
 21
0.0808828747036324
 31
0.0
  0
LINE
  5
DC
100
AcDbEntity
100
AcDbLine
  8
color#1f1a17ff
 62
256
370
-1
  6
BYLAYER
 10
1.4345717375082589
 20
0.0808828747036324
 30
0.0
 11
1.4290990580624119
 21
0.0949942464547695
 31
0.0
  0
LINE
  5
DD
100
AcDbEntity
100
AcDbLine
  8
color#1f1a17ff
 62
256
370
-1
  6
BYLAYER
 10
1.4290990580624119
 20
0.0949942464547695
 30
0.0
 11
1.4232696169323489
 21
0.1089652791230006
 31
0.0
  0
LINE
  5
DE
100
AcDbEntity
100
AcDbLine
  8
color#1f1a17ff
 62
256
370
-1
  6
BYLAYER
 10
1.4232696169323489
 20
0.1089652791230006
 30
0.0
 11
1.4170869054586779
 21
0.1227849416527148
 31
0.0
  0
LINE
  5
DF
100
AcDbEntity
100
AcDbLine
  8
color#1f1a17ff
 62
256
370
-1
  6
BYLAYER
 10
1.4170869054586779
 20
0.1227849416527148
 30
0.0
 11
1.4105544149820057
 21
0.1364422029883022
 31
0.0
  0
LINE
  5
E0
100
AcDbEntity
100
AcDbLine
  8
color#1f1a17ff
 62
256
370
-1
  6
BYLAYER
 10
1.4105544149820057
 20
0.1364422029883022
 30
0.0
 11
1.4036756368429386
 21
0.1499260320741526
 31
0.0
  0
LINE
  5
E1
100
AcDbEntity
100
AcDbLine
  8
color#1f1a17ff
 62
256
370
-1
  6
BYLAYER
 10
1.4036756368429386
 20
0.1499260320741526
 30
0.0
 11
1.3964540623820854
 21
0.1632253978546543
 31
0.0
  0
LINE
  5
E2
100
AcDbEntity
100
AcDbLine
  8
color#1f1a17ff
 62
256
370
-1
  6
BYLAYER
 10
1.3964540623820854
 20
0.1632253978546543
 30
0.0
 11
1.3888931829400517
 21
0.1763292692741981
 31
0.0
  0
LINE
  5
E3
100
AcDbEntity
100
AcDbLine
  8
color#1f1a17ff
 62
256
370
-1
  6
BYLAYER
 10
1.3888931829400517
 20
0.1763292692741981
 30
0.0
 11
1.3809964898574449
 21
0.1892266152771733
 31
0.0
  0
LINE
  5
E4
100
AcDbEntity
100
AcDbLine
  8
color#1f1a17ff
 62
256
370
-1
  6
BYLAYER
 10
1.3809964898574449
 20
0.1892266152771733
 30
0.0
 11
1.3727674744748728
 21
0.2019064048079691
 31
0.0
  0
LINE
  5
E5
100
AcDbEntity
100
AcDbLine
  8
color#1f1a17ff
 62
256
370
-1
  6
BYLAYER
 10
1.3727674744748728
 20
0.2019064048079691
 30
0.0
 11
1.3642096281329421
 21
0.2143576068109753
 31
0.0
  0
LINE
  5
E6
100
AcDbEntity
100
AcDbLine
  8
color#1f1a17ff
 62
256
370
-1
  6
BYLAYER
 10
1.3642096281329421
 20
0.2143576068109753
 30
0.0
 11
1.3553264421722593
 21
0.2265691902305815
 31
0.0
  0
LINE
  5
E7
100
AcDbEntity
100
AcDbLine
  8
color#1f1a17ff
 62
256
370
-1
  6
BYLAYER
 10
1.3553264421722593
 20
0.2265691902305815
 30
0.0
 11
1.3461214079334323
 21
0.238530124011177
 31
0.0
  0
LINE
  5
E8
100
AcDbEntity
100
AcDbLine
  8
color#1f1a17ff
 62
256
370
-1
  6
BYLAYER
 10
1.3461214079334323
 20
0.238530124011177
 30
0.0
 11
1.3365980167570684
 21
0.2502293770971517
 31
0.0
  0
LINE
  5
E9
100
AcDbEntity
100
AcDbLine
  8
color#1f1a17ff
 62
256
370
-1
  6
BYLAYER
 10
1.3365980167570684
 20
0.2502293770971517
 30
0.0
 11
1.3267597599837737
 21
0.261655918432895
 31
0.0
  0
LINE
  5
EA
100
AcDbEntity
100
AcDbLine
  8
color#1f1a17ff
 62
256
370
-1
  6
BYLAYER
 10
1.3267597599837737
 20
0.261655918432895
 30
0.0
 11
1.3166101289541561
 21
0.2727987169627963
 31
0.0
  0
LINE
  5
EB
100
AcDbEntity
100
AcDbLine
  8
color#1f1a17ff
 62
256
370
-1
  6
BYLAYER
 10
1.3166101289541561
 20
0.2727987169627963
 30
0.0
 11
1.3061526150088227
 21
0.2836467416312454
 31
0.0
  0
LINE
  5
EC
100
AcDbEntity
100
AcDbLine
  8
color#1f1a17ff
 62
256
370
-1
  6
BYLAYER
 10
1.3061526150088227
 20
0.2836467416312454
 30
0.0
 11
1.2953907094883803
 21
0.2941889613826315
 31
0.0
  0
LINE
  5
ED
100
AcDbEntity
100
AcDbLine
  8
color#1f1a17ff
 62
256
370
-1
  6
BYLAYER
 10
1.2953907094883803
 20
0.2941889613826315
 30
0.0
 11
1.2843279037334365
 21
0.3044143451613447
 31
0.0
  0
LINE
  5
EE
100
AcDbEntity
100
AcDbLine
  8
color#1f1a17ff
 62
256
370
-1
  6
BYLAYER
 10
1.2843279037334365
 20
0.3044143451613447
 30
0.0
 11
1.2729676890845976
 21
0.314311861911774
 31
0.0
  0
LINE
  5
EF
100
AcDbEntity
100
AcDbLine
  8
color#1f1a17ff
 62
256
370
-1
  6
BYLAYER
 10
1.2729676890845976
 20
0.314311861911774
 30
0.0
 11
1.2613135568824716
 21
0.3238704805783092
 31
0.0
  0
LINE
  5
F0
100
AcDbEntity
100
AcDbLine
  8
color#1f1a17ff
 62
256
370
-1
  6
BYLAYER
 10
1.2613135568824716
 20
0.3238704805783092
 30
0.0
 11
1.2493689984676648
 21
0.3330791701053401
 31
0.0
  0
LINE
  5
F1
100
AcDbEntity
100
AcDbLine
  8
color#1f1a17ff
 62
256
370
-1
  6
BYLAYER
 10
1.2493689984676648
 20
0.3330791701053401
 30
0.0
 11
1.2371375051807847
 21
0.3419268994372559
 31
0.0
  0
LINE
  5
F2
100
AcDbEntity
100
AcDbLine
  8
color#1f1a17ff
 62
256
370
-1
  6
BYLAYER
 10
1.2371375051807847
 20
0.3419268994372559
 30
0.0
 11
1.2246225683624385
 21
0.3504026375184463
 31
0.0
  0
LINE
  5
F3
100
AcDbEntity
100
AcDbLine
  8
color#1f1a17ff
 62
256
370
-1
  6
BYLAYER
 10
1.2246225683624385
 20
0.3504026375184463
 30
0.0
 11
1.2118276793532334
 21
0.3584953532933007
 31
0.0
  0
LINE
  5
F4
100
AcDbEntity
100
AcDbLine
  8
color#1f1a17ff
 62
256
370
-1
  6
BYLAYER
 10
1.2118276793532334
 20
0.3584953532933007
 30
0.0
 11
1.198756329493776
 21
0.3661940157062089
 31
0.0
  0
LINE
  5
F5
100
AcDbEntity
100
AcDbLine
  8
color#1f1a17ff
 62
256
370
-1
  6
BYLAYER
 10
1.198756329493776
 20
0.3661940157062089
 30
0.0
 11
1.1854120101246741
 21
0.3734875937015602
 31
0.0
  0
LINE
  5
F6
100
AcDbEntity
100
AcDbLine
  8
color#1f1a17ff
 62
256
370
-1
  6
BYLAYER
 10
1.1854120101246741
 20
0.3734875937015602
 30
0.0
 11
1.1717982125865343
 21
0.3803650562237445
 31
0.0
  0
LINE
  5
F7
100
AcDbEntity
100
AcDbLine
  8
color#1f1a17ff
 62
256
370
-1
  6
BYLAYER
 10
1.1717982125865343
 20
0.3803650562237445
 30
0.0
 11
1.1488246904610628
 21
0.3914276601245977
 31
0.0
  0
LINE
  5
F8
100
AcDbEntity
100
AcDbLine
  8
color#1f1a17ff
 62
256
370
-1
  6
BYLAYER
 10
1.1488246904610628
 20
0.3914276601245977
 30
0.0
 11
1.1256161914868936
 21
0.4016992034053636
 31
0.0
  0
LINE
  5
F9
100
AcDbEntity
100
AcDbLine
  8
color#1f1a17ff
 62
256
370
-1
  6
BYLAYER
 10
1.1256161914868936
 20
0.4016992034053636
 30
0.0
 11
1.1021848761657798
 21
0.4112055740235666
 31
0.0
  0
LINE
  5
FA
100
AcDbEntity
100
AcDbLine
  8
color#1f1a17ff
 62
256
370
-1
  6
BYLAYER
 10
1.1021848761657798
 20
0.4112055740235666
 30
0.0
 11
1.0785429049994728
 21
0.4199726599367324
 31
0.0
  0
LINE
  5
FB
100
AcDbEntity
100
AcDbLine
  8
color#1f1a17ff
 62
256
370
-1
  6
BYLAYER
 10
1.0785429049994728
 20
0.4199726599367324
 30
0.0
 11
1.0547024384897261
 21
0.4280263491023855
 31
0.0
  0
LINE
  5
FC
100
AcDbEntity
100
AcDbLine
  8
color#1f1a17ff
 62
256
370
-1
  6
BYLAYER
 10
1.0547024384897261
 20
0.4280263491023855
 30
0.0
 11
1.0306756371382912
 21
0.4353925294780516
 31
0.0
  0
LINE
  5
FD
100
AcDbEntity
100
AcDbLine
  8
color#1f1a17ff
 62
256
370
-1
  6
BYLAYER
 10
1.0306756371382912
 20
0.4353925294780516
 30
0.0
 11
1.0064746614469204
 21
0.4420970890212558
 31
0.0
  0
LINE
  5
FE
100
AcDbEntity
100
AcDbLine
  8
color#1f1a17ff
 62
256
370
-1
  6
BYLAYER
 10
1.0064746614469204
 20
0.4420970890212558
 30
0.0
 11
0.9821116719173667
 21
0.4481659156895226
 31
0.0
  0
LINE
  5
FF
100
AcDbEntity
100
AcDbLine
  8
color#1f1a17ff
 62
256
370
-1
  6
BYLAYER
 10
0.9821116719173667
 20
0.4481659156895226
 30
0.0
 11
0.9575988290513821
 21
0.4536248974403778
 31
0.0
  0
LINE
  5
100
100
AcDbEntity
100
AcDbLine
  8
color#1f1a17ff
 62
256
370
-1
  6
BYLAYER
 10
0.9575988290513821
 20
0.4536248974403778
 30
0.0
 11
0.9329482933507185
 21
0.4584999222313466
 31
0.0
  0
LINE
  5
101
100
AcDbEntity
100
AcDbLine
  8
color#1f1a17ff
 62
256
370
-1
  6
BYLAYER
 10
0.9329482933507185
 20
0.4584999222313466
 30
0.0
 11
0.9081722253171289
 21
0.4628168780199536
 31
0.0
  0
LINE
  5
102
100
AcDbEntity
100
AcDbLine
  8
color#1f1a17ff
 62
256
370
-1
  6
BYLAYER
 10
0.9081722253171289
 20
0.4628168780199536
 30
0.0
 11
0.8832827854523657
 21
0.466601652763724
 31
0.0
  0
LINE
  5
103
100
AcDbEntity
100
AcDbLine
  8
color#1f1a17ff
 62
256
370
-1
  6
BYLAYER
 10
0.8832827854523657
 20
0.466601652763724
 30
0.0
 11
0.8582921342581805
 21
0.4698801344201834
 31
0.0
  0
LINE
  5
104
100
AcDbEntity
100
AcDbLine
  8
color#1f1a17ff
 62
256
370
-1
  6
BYLAYER
 10
0.8582921342581805
 20
0.4698801344201834
 30
0.0
 11
0.8332124322363264
 21
0.4726782109468566
 31
0.0
  0
LINE
  5
105
100
AcDbEntity
100
AcDbLine
  8
color#1f1a17ff
 62
256
370
-1
  6
BYLAYER
 10
0.8332124322363264
 20
0.4726782109468566
 30
0.0
 11
0.8080558398885553
 21
0.4750217703012686
 31
0.0
  0
LINE
  5
106
100
AcDbEntity
100
AcDbLine
  8
color#1f1a17ff
 62
256
370
-1
  6
BYLAYER
 10
0.8080558398885553
 20
0.4750217703012686
 30
0.0
 11
0.7828345177166197
 21
0.4769367004409449
 31
0.0
  0
LINE
  5
107
100
AcDbEntity
100
AcDbLine
  8
color#1f1a17ff
 62
256
370
-1
  6
BYLAYER
 10
0.7828345177166197
 20
0.4769367004409449
 30
0.0
 11
0.7575606262222721
 21
0.4784488893234103
 31
0.0
  0
LINE
  5
108
100
AcDbEntity
100
AcDbLine
  8
color#1f1a17ff
 62
256
370
-1
  6
BYLAYER
 10
0.7575606262222721
 20
0.4784488893234103
 30
0.0
 11
0.7322463259072645
 21
0.4795842249061902
 31
0.0
  0
LINE
  5
109
100
AcDbEntity
100
AcDbLine
  8
color#1f1a17ff
 62
256
370
-1
  6
BYLAYER
 10
0.7322463259072645
 20
0.4795842249061902
 30
0.0
 11
0.7069037772733495
 21
0.4803685951468095
 31
0.0
  0
LINE
  5
10A
100
AcDbEntity
100
AcDbLine
  8
color#1f1a17ff
 62
256
370
-1
  6
BYLAYER
 10
0.7069037772733495
 20
0.4803685951468095
 30
0.0
 11
0.6561825770558069
 21
0.4809879914316672
 31
0.0
  0
LINE
  5
10B
100
AcDbEntity
100
AcDbLine
  8
color#1f1a17ff
 62
256
370
-1
  6
BYLAYER
 10
0.6561825770558069
 20
0.4809879914316672
 30
0.0
 11
0.6054943095836624
 21
0.4805141818381842
 31
0.0
  0
LINE
  5
10C
100
AcDbEntity
100
AcDbLine
  8
color#1f1a17ff
 62
256
370
-1
  6
BYLAYER
 10
0.6054943095836624
 20
0.4805141818381842
 30
0.0
 11
0.529736466053734
 21
0.4782067456827616
 31
0.0
  0
LINE
  5
10D
100
AcDbEntity
100
AcDbLine
  8
color#1f1a17ff
 62
256
370
-1
  6
BYLAYER
 10
0.529736466053734
 20
0.4782067456827616
 30
0.0
 11
0.4545999437798075
 21
0.4746045543897036
 31
0.0
  0
LINE
  5
10E
100
AcDbEntity
100
AcDbLine
  8
color#1f1a17ff
 62
256
370
-1
  6
BYLAYER
 10
0.4545999437798075
 20
0.4746045543897036
 30
0.0
 11
0.4614291742579112
 21
0.543183099087255
 31
0.0
  0
LINE
  5
10F
100
AcDbEntity
100
AcDbLine
  8
color#1f1a17ff
 62
256
370
-1
  6
BYLAYER
 10
0.4614291742579112
 20
0.543183099087255
 30
0.0
 11
0.4622770348512952
 21
0.5827424279045083
 31
0.0
  0
LINE
  5
110
100
AcDbEntity
100
AcDbLine
  8
color#1f1a17ff
 62
256
370
-1
  6
BYLAYER
 10
0.4622770348512952
 20
0.5827424279045083
 30
0.0
 11
0.4609640428202276
 21
0.6122930044580477
 31
0.0
  0
LINE
  5
111
100
AcDbEntity
100
AcDbLine
  8
color#1f1a17ff
 62
256
370
-1
  6
BYLAYER
 10
0.4609640428202276
 20
0.6122930044580477
 30
0.0
 11
0.4590103575899203
 21
0.6318460655283431
 31
0.0
  0
LINE
  5
112
100
AcDbEntity
100
AcDbLine
  8
color#1f1a17ff
 62
256
370
-1
  6
BYLAYER
 10
0.4590103575899203
 20
0.6318460655283431
 30
0.0
 11
0.4561004569137007
 21
0.6512248357024876
 31
0.0
  0
LINE
  5
113
100
AcDbEntity
100
AcDbLine
  8
color#1f1a17ff
 62
256
370
-1
  6
BYLAYER
 10
0.4561004569137007
 20
0.6512248357024876
 30
0.0
 11
0.4521541724959385
 21
0.6703809444743393
 31
0.0
  0
LINE
  5
114
100
AcDbEntity
100
AcDbLine
  8
color#1f1a17ff
 62
256
370
-1
  6
BYLAYER
 10
0.4521541724959385
 20
0.6703809444743393
 30
0.0
 11
0.4470913360410028
 21
0.6892660213377557
 31
0.0
  0
LINE
  5
115
100
AcDbEntity
100
AcDbLine
  8
color#1f1a17ff
 62
256
370
-1
  6
BYLAYER
 10
0.4470913360410028
 20
0.6892660213377557
 30
0.0
 11
0.4441161582072103
 21
0.6985918070206315
 31
0.0
  0
LINE
  5
116
100
AcDbEntity
100
AcDbLine
  8
color#1f1a17ff
 62
256
370
-1
  6
BYLAYER
 10
0.4441161582072103
 20
0.6985918070206315
 30
0.0
 11
0.4408317792532631
 21
0.707831695786595
 31
0.0
  0
LINE
  5
117
100
AcDbEntity
100
AcDbLine
  8
color#1f1a17ff
 62
256
370
-1
  6
BYLAYER
 10
0.4408317792532631
 20
0.707831695786595
 30
0.0
 11
0.4372281781422072
 21
0.7169796413223788
 31
0.0
  0
LINE
  5
118
100
AcDbEntity
100
AcDbLine
  8
color#1f1a17ff
 62
256
370
-1
  6
BYLAYER
 10
0.4372281781422072
 20
0.7169796413223788
 30
0.0
 11
0.4332953338370889
 21
0.7260295973147147
 31
0.0
  0
LINE
  5
119
100
AcDbEntity
100
AcDbLine
  8
color#1f1a17ff
 62
256
370
-1
  6
BYLAYER
 10
0.4332953338370889
 20
0.7260295973147147
 30
0.0
 11
0.4290232253009541
 21
0.7349755174503354
 31
0.0
  0
LINE
  5
11A
100
AcDbEntity
100
AcDbLine
  8
color#1f1a17ff
 62
256
370
-1
  6
BYLAYER
 10
0.4290232253009541
 20
0.7349755174503354
 30
0.0
 11
0.4244018314968493
 21
0.7438113554159728
 31
0.0
  0
LINE
  5
11B
100
AcDbEntity
100
AcDbLine
  8
color#1f1a17ff
 62
256
370
-1
  6
BYLAYER
 10
0.4244018314968493
 20
0.7438113554159728
 30
0.0
 11
0.4194211313878206
 21
0.7525310648983593
 31
0.0
  0
LINE
  5
11C
100
AcDbEntity
100
AcDbLine
  8
color#1f1a17ff
 62
256
370
-1
  6
BYLAYER
 10
0.4194211313878206
 20
0.7525310648983593
 30
0.0
 11
0.4108972155864518
 21
0.7671746610034125
 31
0.0
  0
LINE
  5
11D
100
AcDbEntity
100
AcDbLine
  8
color#1f1a17ff
 62
256
370
-1
  6
BYLAYER
 10
0.4108972155864518
 20
0.7671746610034125
 30
0.0
 11
0.401863002172914
 21
0.7813509119723737
 31
0.0
  0
LINE
  5
11E
100
AcDbEntity
100
AcDbLine
  8
color#1f1a17ff
 62
256
370
-1
  6
BYLAYER
 10
0.401863002172914
 20
0.7813509119723737
 30
0.0
 11
0.3923391910520193
 21
0.7950732765355575
 31
0.0
  0
LINE
  5
11F
100
AcDbEntity
100
AcDbLine
  8
color#1f1a17ff
 62
256
370
-1
  6
BYLAYER
 10
0.3923391910520193
 20
0.7950732765355575
 30
0.0
 11
0.3823464821285786
 21
0.808355213423279
 31
0.0
  0
LINE
  5
120
100
AcDbEntity
100
AcDbLine
  8
color#1f1a17ff
 62
256
370
-1
  6
BYLAYER
 10
0.3823464821285786
 20
0.808355213423279
 30
0.0
 11
0.3719055753074038
 21
0.8212101813658524
 31
0.0
  0
LINE
  5
121
100
AcDbEntity
100
AcDbLine
  8
color#1f1a17ff
 62
256
370
-1
  6
BYLAYER
 10
0.3719055753074038
 20
0.8212101813658524
 30
0.0
 11
0.3610371704933059
 21
0.8336516390935932
 31
0.0
  0
LINE
  5
122
100
AcDbEntity
100
AcDbLine
  8
color#1f1a17ff
 62
256
370
-1
  6
BYLAYER
 10
0.3610371704933059
 20
0.8336516390935932
 30
0.0
 11
0.3497619675910968
 21
0.8456930453368158
 31
0.0
  0
LINE
  5
123
100
AcDbEntity
100
AcDbLine
  8
color#1f1a17ff
 62
256
370
-1
  6
BYLAYER
 10
0.3497619675910968
 20
0.8456930453368158
 30
0.0
 11
0.3381006665055878
 21
0.857347858825835
 31
0.0
  0
LINE
  5
124
100
AcDbEntity
100
AcDbLine
  8
color#1f1a17ff
 62
256
370
-1
  6
BYLAYER
 10
0.3381006665055878
 20
0.857347858825835
 30
0.0
 11
0.3260739671415905
 21
0.8686295382909658
 31
0.0
  0
LINE
  5
125
100
AcDbEntity
100
AcDbLine
  8
color#1f1a17ff
 62
256
370
-1
  6
BYLAYER
 10
0.3260739671415905
 20
0.8686295382909658
 30
0.0
 11
0.313702569403916
 21
0.879551542462523
 31
0.0
  0
LINE
  5
126
100
AcDbEntity
100
AcDbLine
  8
color#1f1a17ff
 62
256
370
-1
  6
BYLAYER
 10
0.313702569403916
 20
0.879551542462523
 30
0.0
 11
0.3010071731973761
 21
0.8901273300708211
 31
0.0
  0
LINE
  5
127
100
AcDbEntity
100
AcDbLine
  8
color#1f1a17ff
 62
256
370
-1
  6
BYLAYER
 10
0.3010071731973761
 20
0.8901273300708211
 30
0.0
 11
0.2880084784267822
 21
0.9003703598461751
 31
0.0
  0
LINE
  5
128
100
AcDbEntity
100
AcDbLine
  8
color#1f1a17ff
 62
256
370
-1
  6
BYLAYER
 10
0.2880084784267822
 20
0.9003703598461751
 30
0.0
 11
0.2747271849969457
 21
0.9102940905189003
 31
0.0
  0
LINE
  5
129
100
AcDbEntity
100
AcDbLine
  8
color#1f1a17ff
 62
256
370
-1
  6
BYLAYER
 10
0.2747271849969457
 20
0.9102940905189003
 30
0.0
 11
0.2611839928126782
 21
0.9199119808193106
 31
0.0
  0
LINE
  5
12A
100
AcDbEntity
100
AcDbLine
  8
color#1f1a17ff
 62
256
370
-1
  6
BYLAYER
 10
0.2611839928126782
 20
0.9199119808193106
 30
0.0
 11
0.2473996017787911
 21
0.9292374894777216
 31
0.0
  0
LINE
  5
12B
100
AcDbEntity
100
AcDbLine
  8
color#1f1a17ff
 62
256
370
-1
  6
BYLAYER
 10
0.2473996017787911
 20
0.9292374894777216
 30
0.0
 11
0.2333947118000957
 21
0.9382840752244476
 31
0.0
  0
LINE
  5
12C
100
AcDbEntity
100
AcDbLine
  8
color#1f1a17ff
 62
256
370
-1
  6
BYLAYER
 10
0.2333947118000957
 20
0.9382840752244476
 30
0.0
 11
0.2048062346275265
 21
0.9555943129041045
 31
0.0
  0
LINE
  5
12D
100
AcDbEntity
100
AcDbLine
  8
color#1f1a17ff
 62
256
370
-1
  6
BYLAYER
 10
0.2048062346275265
 20
0.9555943129041045
 30
0.0
 11
0.1755841605334623
 21
0.9719503637007995
 31
0.0
  0
LINE
  5
12E
100
AcDbEntity
100
AcDbLine
  8
color#1f1a17ff
 62
256
370
-1
  6
BYLAYER
 10
0.1755841605334623
 20
0.9719503637007995
 30
0.0
 11
0.1309253034987636
 21
0.9949308672707984
 31
0.0
  0
LINE
  5
12F
100
AcDbEntity
100
AcDbLine
  8
color#1f1a17ff
 62
256
370
-1
  6
BYLAYER
 10
0.1309253034987636
 20
0.9949308672707984
 30
0.0
 11
0.0406841947887331
 21
1.036631427261804
 31
0.0
  0
ENDSEC
  0
SECTION
  2
OBJECTS
  0
DICTIONARY
  5
C
100
AcDbDictionary
280
0
281
1
  3
ACAD_GROUP
350
D
  3
ACAD_LAYOUT
350
1A
  3
ACAD_MLINESTYLE
350
17
  3
ACAD_PLOTSETTINGS
350
19
  3
ACAD_PLOTSTYLENAME
350
E
  3
AcDbVariableDictionary
350
130
  0
DICTIONARY
  5
D
100
AcDbDictionary
280
0
281
1
  0
ACDBDICTIONARYWDFLT
  5
E
100
AcDbDictionary
281
1
  3
Normal
350
F
100
AcDbDictionaryWithDefault
340
F
  0
ACDBPLACEHOLDER
  5
F
  0
DICTIONARY
  5
17
100
AcDbDictionary
280
0
281
1
  3
Standard
350
18
  0
MLINESTYLE
  5
18
100
AcDbMlineStyle
  2
STANDARD
 70
0
  3

 62
256
 51
90.0
 52
90.0
 71
2
 49
0.5
 62
256
  6
BYLAYER
 49
-0.5
 62
256
  6
BYLAYER
  0
DICTIONARY
  5
19
100
AcDbDictionary
280
0
281
1
  0
DICTIONARY
  5
1A
100
AcDbDictionary
281
1
  3
Layout1
350
1E
  3
Layout2
350
26
  3
Model
350
22
  0
LAYOUT
  5
1E
100
AcDbPlotSettings
  1

  2
C:\Program Files\AutoCAD 2002\plotters\DWF ePlot (optimized for plotting).pc3
  4

  6

 40
0.0
 41
0.0
 42
0.0
 43
0.0
 44
0.0
 45
0.0
 46
0.0
 47
0.0
 48
0.0
 49
0.0
140
0.0
141
0.0
142
1.0
143
1.0
 70
688
 72
0
 73
0
 74
5
  7

 75
16
147
1.0
148
0.0
149
0.0
100
AcDbLayout
  1
Layout1
 70
1
 71
1
 10
0.0
 20
0.0
 11
420.0
 21
297.0
 12
0.0
 22
0.0
 32
0.0
 14
100000000000000000000.0
 24
100000000000000000000.0
 34
100000000000000000000.0
 15
-100000000000000000000.0
 25
-100000000000000000000.0
 35
-100000000000000000000.0
146
0.0
 13
0.0
 23
0.0
 33
0.0
 16
1.0
 26
0.0
 36
0.0
 17
0.0
 27
1.0
 37
0.0
 76
0
330
1B
  0
LAYOUT
  5
22
100
AcDbPlotSettings
  1

  2
C:\Program Files\AutoCAD 2002\plotters\DWF ePlot (optimized for plotting).pc3
  4

  6

 40
0.0
 41
0.0
 42
0.0
 43
0.0
 44
0.0
 45
0.0
 46
0.0
 47
0.0
 48
0.0
 49
0.0
140
0.0
141
0.0
142
1.0
143
1.0
 70
1712
 72
0
 73
0
 74
0
  7

 75
0
147
1.0
148
0.0
149
0.0
100
AcDbLayout
  1
Model
 70
1
 71
0
 10
0.0
 20
0.0
 11
12.0
 21
9.0
 12
0.0
 22
0.0
 32
0.0
 14
0.0
 24
0.0
 34
0.0
 15
0.0
 25
0.0
 35
0.0
146
0.0
 13
0.0
 23
0.0
 33
0.0
 16
1.0
 26
0.0
 36
0.0
 17
0.0
 27
1.0
 37
0.0
 76
0
330
1F
  0
LAYOUT
  5
26
100
AcDbPlotSettings
  1

  2
C:\Program Files\AutoCAD 2002\plotters\DWF ePlot (optimized for plotting).pc3
  4

  6

 40
0.0
 41
0.0
 42
0.0
 43
0.0
 44
0.0
 45
0.0
 46
0.0
 47
0.0
 48
0.0
 49
0.0
140
0.0
141
0.0
142
1.0
143
1.0
 70
688
 72
0
 73
0
 74
5
  7

 75
16
147
1.0
148
0.0
149
0.0
100
AcDbLayout
  1
Layout2
 70
1
 71
2
 10
0.0
 20
0.0
 11
12.0
 21
9.0
 12
0.0
 22
0.0
 32
0.0
 14
0.0
 24
0.0
 34
0.0
 15
0.0
 25
0.0
 35
0.0
146
0.0
 13
0.0
 23
0.0
 33
0.0
 16
1.0
 26
0.0
 36
0.0
 17
0.0
 27
1.0
 37
0.0
 76
0
330
23
  0
DICTIONARY
  5
130
100
AcDbDictionary
281
1
  3
DIMASSOC
350
132
  3
HIDETEXT
350
131
  0
DICTIONARYVAR
  5
131
100
DictionaryVariables
280
0
  1
2
  0
DICTIONARYVAR
  5
132
100
DictionaryVariables
280
0
  1
1
  0
ENDSEC
  0
EOF
