<?xml version="1.0" encoding="UTF-8" ?>
<!DOCTYPE svg PUBLIC "-//W3C//DTD SVG 1.1//EN" "http://www.w3.org/Graphics/SVG/1.1/DTD/svg11.dtd">
<svg width="256pt" height="256pt" viewBox="0 0 256 256" version="1.1" xmlns="http://www.w3.org/2000/svg">
<g id="#fbfaf7ff">
<path fill="#fbfaf7" opacity="1.00" d=" M 86.60 37.90 C 98.42 32.33 111.22 28.06 124.42 28.24 C 124.36 38.19 124.42 48.13 124.39 58.07 C 119.57 56.89 115.23 54.43 110.76 52.34 C 102.41 48.32 94.28 43.83 86.28 39.16 C 86.36 38.84 86.52 38.21 86.60 37.90 Z" />
<path fill="#fbfaf7" opacity="1.00" d=" M 132.47 28.28 C 145.44 28.14 158.05 32.20 169.59 37.85 C 169.61 38.18 169.63 38.84 169.64 39.17 C 157.40 45.59 145.45 52.68 132.67 58.00 C 132.54 48.09 132.73 38.19 132.47 28.28 Z" />
<path fill="#fbfaf7" opacity="1.00" d=" M 76.14 45.20 C 77.22 44.17 78.84 44.11 80.09 44.87 C 91.12 50.60 102.39 55.88 113.19 62.04 C 113.39 62.41 113.79 63.15 113.99 63.53 C 95.98 63.71 77.96 63.82 59.95 63.44 C 64.04 56.36 69.57 50.07 76.14 45.20 Z" />
<path fill="#fbfaf7" opacity="1.00" d=" M 142.78 62.01 C 154.20 55.16 166.29 49.59 178.03 43.34 C 185.23 48.81 192.64 55.01 196.29 63.51 C 178.19 63.81 160.08 63.74 141.98 63.55 C 142.18 63.16 142.58 62.39 142.78 62.01 Z" />
<path fill="#fbfaf7" opacity="1.00" d=" M 55.71 71.33 C 66.79 70.81 77.90 71.35 89.00 71.17 C 94.98 71.36 100.96 70.57 106.93 71.04 C 113.64 71.56 120.33 70.49 127.03 70.93 C 142.00 70.97 156.98 70.44 171.94 71.16 C 181.65 70.85 191.37 71.05 201.07 71.42 C 201.84 74.47 202.74 77.49 203.63 80.50 C 190.09 80.76 176.55 80.36 163.02 80.70 C 153.61 81.07 143.55 85.49 139.14 94.22 C 135.27 102.01 136.94 110.86 136.68 119.20 C 139.23 121.53 141.83 123.79 144.56 125.91 C 144.56 126.29 144.57 127.03 144.58 127.41 C 140.04 130.92 135.65 134.62 131.33 138.39 C 130.17 139.47 128.24 140.49 126.89 139.12 C 121.77 135.37 117.23 130.87 112.02 127.21 C 113.45 123.88 116.91 122.23 119.54 119.99 C 119.62 113.99 119.73 107.99 119.58 101.99 C 119.54 96.68 116.87 91.59 112.97 88.07 C 107.50 83.28 100.24 80.71 93.00 80.61 C 79.73 80.47 66.45 80.69 53.19 80.51 C 53.97 77.43 54.87 74.39 55.71 71.33 Z" />
<path fill="#fbfaf7" opacity="1.00" d=" M 12.20 87.69 C 22.60 87.92 33.09 87.05 43.44 88.22 C 43.31 94.30 43.68 100.39 43.31 106.46 C 42.41 107.95 40.41 107.16 39.00 107.42 C 34.06 107.24 29.00 107.97 24.14 106.97 C 17.03 103.43 12.16 95.66 12.20 87.69 Z" />
<path fill="#fbfaf7" opacity="1.00" d=" M 190.37 88.39 C 194.97 87.31 199.71 87.66 204.39 87.87 C 204.69 119.48 204.48 151.11 204.51 182.72 C 200.27 187.05 195.62 190.97 190.47 194.17 C 190.14 158.91 190.40 123.65 190.37 88.39 Z" />
<path fill="#fbfaf7" opacity="1.00" d=" M 51.70 103.04 C 51.51 97.91 52.40 92.84 52.67 87.73 C 57.28 87.68 61.92 87.59 66.48 88.35 C 66.30 123.59 66.64 158.84 66.35 194.08 C 60.90 191.00 56.44 186.55 51.60 182.66 C 51.76 156.12 51.51 129.58 51.70 103.04 Z" />
<path fill="#fbfaf7" opacity="1.00" d=" M 75.45 88.24 C 82.61 87.54 89.91 87.17 97.04 88.43 C 100.74 89.05 104.37 90.53 107.03 93.25 C 100.89 97.97 95.32 103.41 88.95 107.83 C 84.85 104.27 80.32 101.20 76.47 97.37 C 74.10 94.86 74.93 91.27 75.45 88.24 Z" />
<path fill="#fbfaf7" opacity="1.00" d=" M 158.56 88.49 C 166.17 87.32 173.96 87.37 181.59 88.26 C 181.58 99.62 181.80 110.98 181.47 122.34 C 177.32 127.01 172.28 130.81 167.18 134.36 C 160.22 129.26 153.82 123.41 147.08 118.01 C 144.73 116.60 145.57 113.70 145.33 111.44 C 153.62 111.09 161.92 111.52 170.20 111.20 C 172.19 109.61 170.93 106.55 171.40 104.36 C 162.60 103.58 153.74 104.22 144.92 103.64 C 145.58 96.30 151.22 89.70 158.56 88.49 Z" />
<path fill="#fbfaf7" opacity="1.00" d=" M 212.82 88.86 C 213.29 88.57 214.25 87.99 214.73 87.69 C 224.81 87.97 234.96 86.94 245.00 88.31 C 243.63 95.75 239.54 102.93 233.15 107.12 C 226.67 107.85 220.04 107.23 213.51 107.38 C 212.43 101.26 212.86 95.04 212.82 88.86 Z" />
<path fill="#fbfaf7" opacity="1.00" d=" M 96.35 112.37 C 101.15 108.32 105.65 103.75 111.29 100.85 C 111.40 106.07 111.31 111.30 111.36 116.52 C 109.13 117.88 107.27 121.27 104.37 120.53 C 101.51 118.63 99.14 116.10 96.41 114.04 C 96.40 113.62 96.37 112.79 96.35 112.37 Z" />
<path fill="#fbfaf7" opacity="1.00" d=" M 75.54 107.04 C 77.81 109.02 80.89 110.53 82.51 113.03 C 81.04 115.61 77.76 117.09 75.52 119.11 C 75.29 115.09 75.28 111.06 75.54 107.04 Z" />
<path fill="#fbfaf7" opacity="1.00" d=" M 32.88 114.58 C 36.39 114.38 39.91 114.38 43.42 114.48 C 43.42 117.31 43.40 120.15 43.31 122.98 C 39.46 120.69 36.10 117.68 32.88 114.58 Z" />
<path fill="#fbfaf7" opacity="1.00" d=" M 234.09 116.18 C 236.84 113.14 241.21 114.64 244.78 114.50 C 244.20 121.51 240.33 127.89 234.97 132.32 C 228.64 133.41 222.04 132.63 215.62 132.53 C 220.97 126.21 227.96 121.66 234.09 116.18 Z" />
<path fill="#fbfaf7" opacity="1.00" d=" M 12.06 114.49 C 14.78 114.44 17.51 114.42 20.23 114.41 C 27.19 120.49 34.66 126.00 41.29 132.44 C 34.79 132.94 28.25 132.93 21.74 132.59 C 16.47 128.00 12.18 121.70 12.06 114.49 Z" />
<path fill="#fbfaf7" opacity="1.00" d=" M 213.34 114.38 C 216.78 114.34 220.23 114.37 223.67 114.51 C 220.53 117.65 217.13 120.51 213.49 123.05 C 213.36 120.16 213.33 117.27 213.34 114.38 Z" />
<path fill="#fbfaf7" opacity="1.00" d=" M 80.03 127.29 C 81.49 123.08 86.12 121.29 89.07 118.27 C 92.29 120.78 95.66 123.17 98.43 126.19 C 98.44 126.39 98.46 126.81 98.47 127.02 C 96.14 129.27 93.66 131.41 91.03 133.32 C 89.88 134.23 88.17 133.88 87.17 132.91 C 84.80 131.03 82.51 129.03 80.03 127.29 Z" />
<path fill="#fbfaf7" opacity="1.00" d=" M 102.16 134.09 C 103.23 133.24 104.32 132.06 105.84 132.27 C 107.62 133.36 109.13 134.84 110.73 136.19 C 99.08 145.96 87.52 155.86 75.51 165.19 C 75.35 162.33 75.30 159.47 75.34 156.61 C 84.06 148.85 93.42 141.83 102.16 134.09 Z" />
<path fill="#fbfaf7" opacity="1.00" d=" M 146.27 136.14 C 147.70 134.65 149.27 133.23 151.12 132.28 C 152.37 132.16 153.21 133.32 154.18 133.92 C 161.96 140.45 169.86 146.83 177.65 153.34 C 179.01 154.54 180.53 155.69 181.40 157.33 C 181.90 159.89 181.57 162.54 181.49 165.13 C 172.91 159.74 165.56 152.64 157.66 146.33 C 153.95 142.84 149.44 140.16 146.27 136.14 Z" />
<path fill="#fbfaf7" opacity="1.00" d=" M 179.65 134.58 C 180.12 134.51 181.05 134.35 181.52 134.27 C 181.60 138.17 181.63 142.08 181.44 145.98 C 178.98 144.31 176.60 142.51 174.31 140.62 C 174.33 140.19 174.38 139.34 174.40 138.91 C 176.18 137.50 177.92 136.05 179.65 134.58 Z" />
<path fill="#fbfaf7" opacity="1.00" d=" M 75.55 133.87 C 78.11 135.79 80.62 137.79 82.99 139.94 C 80.55 142.03 78.07 144.07 75.55 146.06 C 75.28 142.00 75.29 137.93 75.55 133.87 Z" />
<path fill="#fbfaf7" opacity="1.00" d=" M 14.11 148.42 C 12.67 145.74 12.18 142.69 12.28 139.67 C 15.32 139.87 18.92 139.23 21.32 141.58 C 28.55 147.88 35.97 153.96 43.38 160.05 C 43.53 165.02 43.54 170.00 43.30 174.97 C 38.11 171.93 33.70 167.81 29.08 164.02 C 23.70 159.25 17.22 155.17 14.11 148.42 Z" />
<path fill="#fbfaf7" opacity="1.00" d=" M 31.92 140.37 C 35.77 140.15 39.61 140.15 43.46 140.28 C 43.44 143.23 43.42 146.19 43.33 149.15 C 38.90 147.12 35.47 143.60 31.92 140.37 Z" />
<path fill="#fbfaf7" opacity="1.00" d=" M 213.38 139.79 C 217.22 139.65 221.07 139.77 224.86 140.42 C 221.27 143.71 217.55 146.88 213.42 149.49 C 213.30 146.26 213.29 143.02 213.38 139.79 Z" />
<path fill="#fbfaf7" opacity="1.00" d=" M 213.34 159.94 C 221.54 153.17 229.69 146.33 237.89 139.55 C 240.20 139.68 242.50 139.84 244.80 140.11 C 243.96 146.56 241.03 152.80 235.95 156.98 C 228.55 163.13 221.33 169.52 213.47 175.10 C 213.18 170.05 213.23 164.99 213.34 159.94 Z" />
<path fill="#fbfaf7" opacity="1.00" d=" M 79.92 171.95 C 92.42 161.92 104.65 151.56 116.98 141.33 C 118.48 142.54 119.98 143.75 121.49 144.94 C 121.52 145.26 121.58 145.90 121.61 146.22 C 112.07 154.16 102.49 162.06 92.95 170.01 C 91.57 171.44 89.27 172.70 89.59 175.01 C 89.53 187.73 89.78 200.45 89.51 213.17 C 85.25 210.72 81.27 207.77 77.74 204.34 C 76.06 202.68 74.60 200.55 74.70 198.08 C 74.52 193.06 74.74 188.04 74.68 183.03 C 74.77 180.58 74.44 177.90 75.85 175.74 C 77.01 174.28 78.51 173.15 79.92 171.95 Z" />
<path fill="#fbfaf7" opacity="1.00" d=" M 135.54 146.25 C 135.25 143.69 139.71 140.85 141.80 143.14 C 154.97 154.33 168.49 165.13 181.55 176.45 C 181.70 185.00 181.80 193.56 181.55 202.12 C 177.03 205.66 173.12 210.33 167.56 212.28 C 167.39 199.19 167.60 186.09 167.49 172.99 C 156.90 164.01 145.96 155.42 135.54 146.25 Z" />
<path fill="#fbfaf7" opacity="1.00" d=" M 119.83 158.49 C 122.40 155.91 124.92 153.15 128.13 151.37 C 131.83 152.46 134.39 156.08 137.42 158.41 C 131.56 158.82 125.68 158.92 119.83 158.49 Z" />
<path fill="#fbfaf7" opacity="1.00" d=" M 98.37 175.59 C 102.58 172.36 106.53 168.82 110.78 165.65 C 122.51 166.45 134.27 165.39 146.00 165.94 C 150.63 168.68 155.00 172.20 158.38 176.40 C 159.30 184.87 159.62 193.46 158.85 201.96 C 158.41 208.01 159.85 214.05 159.12 220.10 C 154.99 224.82 149.77 228.64 144.60 232.20 C 144.00 215.88 144.20 199.53 144.60 183.21 C 146.62 181.06 146.64 178.11 146.71 175.34 C 140.17 174.50 133.57 174.86 127.00 174.79 C 121.11 174.84 115.20 174.51 109.36 175.33 C 109.31 178.39 109.20 181.87 112.54 183.27 C 112.61 199.59 112.93 215.93 112.46 232.25 C 107.20 229.45 102.72 225.31 98.48 221.22 C 98.13 206.02 98.41 190.80 98.37 175.59 Z" />
<path fill="#fbfaf7" opacity="1.00" d=" M 121.38 182.28 C 126.08 182.17 130.78 182.15 135.49 182.25 C 135.54 201.60 135.79 220.95 135.59 240.30 C 133.44 242.15 131.38 244.18 128.92 245.64 C 125.92 245.33 123.89 242.43 121.42 240.90 C 121.02 221.36 121.43 201.82 121.38 182.28 Z" />
</g>
<g id="#646463ff">
<path fill="#646463" opacity="1.00" d=" M 52.72 0.00 L 61.63 0.00 C 61.44 5.45 61.60 10.90 61.64 16.34 C 67.55 14.41 73.02 11.41 78.31 8.17 C 78.38 5.53 78.44 2.89 78.48 0.25 C 81.21 0.23 83.95 0.23 86.69 0.24 C 86.75 1.76 86.80 3.29 86.86 4.82 C 92.94 4.20 98.76 2.17 104.76 1.12 C 104.78 3.63 104.78 6.14 104.77 8.65 C 79.80 13.73 55.89 27.01 40.67 47.77 C 37.18 52.58 34.05 57.73 31.96 63.32 C 37.83 63.40 43.70 63.37 49.56 63.35 C 59.17 46.60 74.83 33.52 92.99 26.97 C 102.81 23.23 113.22 21.46 123.63 20.42 C 123.73 14.93 123.52 9.42 123.74 3.93 C 123.60 2.30 124.64 1.02 125.79 0.00 L 132.57 0.00 C 132.74 6.78 132.66 13.56 132.69 20.34 C 151.61 21.97 170.56 27.60 185.89 39.10 C 194.64 45.48 201.36 54.18 207.02 63.31 C 212.98 63.39 218.95 63.35 224.91 63.26 C 215.84 42.34 197.60 26.44 177.17 17.01 C 168.78 12.97 159.75 10.65 150.79 8.28 C 150.81 5.97 150.83 3.65 150.84 1.34 C 157.18 1.78 163.17 4.15 169.45 4.97 C 169.45 3.42 169.46 1.87 169.46 0.33 C 172.40 0.35 175.33 0.39 178.27 0.44 C 178.35 3.16 178.21 5.91 178.69 8.59 C 183.72 11.85 189.38 14.02 194.67 16.82 C 194.79 11.21 194.77 5.61 194.81 0.00 L 199.16 0.00 C 200.92 0.48 202.67 1.01 204.43 1.54 C 204.31 9.05 204.22 16.56 204.45 24.07 C 209.98 28.52 214.81 33.76 220.32 38.24 C 220.59 25.87 220.43 13.51 220.43 1.14 C 223.44 0.98 226.46 1.01 229.47 1.25 C 229.42 13.92 229.38 26.59 229.52 39.26 C 234.68 37.31 239.53 34.66 244.50 32.29 C 246.29 22.04 244.96 11.55 245.35 1.19 C 248.11 1.18 250.86 1.18 253.63 1.19 C 253.63 12.82 253.67 24.45 253.62 36.09 C 245.07 40.44 236.47 44.73 228.10 49.42 C 230.65 54.24 232.10 59.90 235.93 63.89 C 239.07 64.05 242.20 63.56 245.33 63.29 C 245.35 59.83 245.37 56.37 245.42 52.91 C 248.16 51.76 250.89 50.59 253.65 49.48 C 253.77 56.58 253.72 63.69 253.70 70.80 C 239.23 71.00 224.77 71.26 210.30 71.29 C 211.03 74.34 211.72 77.39 212.46 80.44 C 225.86 80.46 239.26 80.55 252.66 80.44 C 252.78 85.64 253.23 91.03 251.45 96.02 C 250.16 99.98 248.10 103.62 246.13 107.27 C 248.35 107.30 250.56 107.33 252.78 107.36 C 252.74 112.25 253.17 117.31 251.58 122.01 C 250.41 125.58 248.85 129.00 247.45 132.48 C 249.51 132.82 251.58 133.17 253.65 133.51 C 253.42 143.71 250.80 154.82 242.52 161.56 C 219.72 180.77 196.78 199.84 173.80 218.84 C 158.17 230.68 143.67 243.92 128.24 256.00 L 127.23 256.00 C 125.65 254.50 124.05 253.00 122.40 251.57 C 85.99 221.32 49.56 191.09 13.32 160.64 C 5.37 154.12 2.83 143.35 3.29 133.49 C 5.41 133.12 7.54 132.75 9.66 132.40 C 5.04 124.92 2.66 116.19 3.31 107.38 C 5.59 107.35 7.87 107.32 10.15 107.29 C 8.10 102.96 5.70 98.76 4.46 94.10 C 3.18 89.70 3.38 85.06 3.38 80.52 C 16.95 80.45 30.52 80.49 44.08 80.37 C 44.88 77.36 45.72 74.36 46.60 71.38 C 31.93 70.78 17.22 71.81 2.58 70.63 C 2.42 63.47 2.45 56.31 2.59 49.16 C 5.60 50.41 8.57 51.72 11.55 53.02 C 11.63 56.48 11.67 59.94 11.72 63.40 C 14.98 63.41 18.27 63.69 21.50 63.19 C 24.54 59.05 26.11 54.03 28.74 49.62 C 20.20 44.59 11.15 40.49 2.47 35.71 C 2.48 24.19 3.96 12.72 3.38 1.18 C 6.13 1.19 8.88 1.20 11.62 1.22 C 11.61 11.31 11.54 21.41 11.67 31.50 C 16.62 34.49 21.64 37.53 27.28 39.02 C 27.37 26.38 27.34 13.74 27.39 1.10 C 30.15 0.69 32.91 0.35 35.67 0.02 C 37.20 12.48 35.92 25.07 36.57 37.58 C 42.32 33.38 46.80 27.72 52.57 23.53 C 52.67 15.69 52.52 7.84 52.72 0.00 M 86.60 37.90 C 86.52 38.21 86.36 38.84 86.28 39.16 C 94.28 43.83 102.41 48.32 110.76 52.34 C 115.23 54.43 119.57 56.89 124.39 58.07 C 124.42 48.13 124.36 38.19 124.42 28.24 C 111.22 28.06 98.42 32.33 86.60 37.90 M 132.47 28.28 C 132.73 38.19 132.54 48.09 132.67 58.00 C 145.45 52.68 157.40 45.59 169.64 39.17 C 169.63 38.84 169.61 38.18 169.59 37.85 C 158.05 32.20 145.44 28.14 132.47 28.28 M 76.14 45.20 C 69.57 50.07 64.04 56.36 59.95 63.44 C 77.96 63.82 95.98 63.71 113.99 63.53 C 113.79 63.15 113.39 62.41 113.19 62.04 C 102.39 55.88 91.12 50.60 80.09 44.87 C 78.84 44.11 77.22 44.17 76.14 45.20 M 142.78 62.01 C 142.58 62.39 142.18 63.16 141.98 63.55 C 160.08 63.74 178.19 63.81 196.29 63.51 C 192.64 55.01 185.23 48.81 178.03 43.34 C 166.29 49.59 154.20 55.16 142.78 62.01 M 55.71 71.33 C 54.87 74.39 53.97 77.43 53.19 80.51 C 66.45 80.69 79.73 80.47 93.00 80.61 C 100.24 80.71 107.50 83.28 112.97 88.07 C 116.87 91.59 119.54 96.68 119.58 101.99 C 119.73 107.99 119.62 113.99 119.54 119.99 C 116.91 122.23 113.45 123.88 112.02 127.21 C 117.23 130.87 121.77 135.37 126.89 139.12 C 128.24 140.49 130.17 139.47 131.33 138.39 C 135.65 134.62 140.04 130.92 144.58 127.41 C 144.57 127.03 144.56 126.29 144.56 125.91 C 141.83 123.79 139.23 121.53 136.68 119.20 C 136.94 110.86 135.27 102.01 139.14 94.22 C 143.55 85.49 153.61 81.07 163.02 80.70 C 176.55 80.36 190.09 80.76 203.63 80.50 C 202.74 77.49 201.84 74.47 201.07 71.42 C 191.37 71.05 181.65 70.85 171.94 71.16 C 156.98 70.44 142.00 70.97 127.03 70.93 C 120.33 70.49 113.64 71.56 106.93 71.04 C 100.96 70.57 94.98 71.36 89.00 71.17 C 77.90 71.35 66.79 70.81 55.71 71.33 M 12.20 87.69 C 12.16 95.66 17.03 103.43 24.14 106.97 C 29.00 107.97 34.06 107.24 39.00 107.42 C 40.41 107.16 42.41 107.95 43.31 106.46 C 43.68 100.39 43.31 94.30 43.44 88.22 C 33.09 87.05 22.60 87.92 12.20 87.69 M 190.37 88.39 C 190.40 123.65 190.14 158.91 190.47 194.17 C 195.62 190.97 200.27 187.05 204.51 182.72 C 204.48 151.11 204.69 119.48 204.39 87.87 C 199.71 87.66 194.97 87.31 190.37 88.39 M 51.70 103.04 C 51.51 129.58 51.76 156.12 51.60 182.66 C 56.44 186.55 60.90 191.00 66.35 194.08 C 66.64 158.84 66.30 123.59 66.48 88.35 C 61.92 87.59 57.28 87.68 52.67 87.73 C 52.40 92.84 51.51 97.91 51.70 103.04 M 75.45 88.24 C 74.93 91.27 74.10 94.86 76.47 97.37 C 80.32 101.20 84.85 104.27 88.95 107.83 C 95.32 103.41 100.89 97.97 107.03 93.25 C 104.37 90.53 100.74 89.05 97.04 88.43 C 89.91 87.17 82.61 87.54 75.45 88.24 M 158.56 88.49 C 151.22 89.70 145.58 96.30 144.92 103.64 C 153.74 104.22 162.60 103.58 171.40 104.36 C 170.93 106.55 172.19 109.61 170.20 111.20 C 161.92 111.52 153.62 111.09 145.33 111.44 C 145.57 113.70 144.73 116.60 147.08 118.01 C 153.82 123.41 160.22 129.26 167.18 134.36 C 172.28 130.81 177.32 127.01 181.47 122.34 C 181.80 110.98 181.58 99.62 181.59 88.26 C 173.96 87.37 166.17 87.32 158.56 88.49 M 212.82 88.86 C 212.86 95.04 212.43 101.26 213.51 107.38 C 220.04 107.23 226.67 107.85 233.15 107.12 C 239.54 102.93 243.63 95.75 245.00 88.31 C 234.96 86.94 224.81 87.97 214.73 87.69 C 214.25 87.99 213.29 88.57 212.82 88.86 M 96.35 112.37 C 96.37 112.79 96.40 113.62 96.41 114.04 C 99.14 116.10 101.51 118.63 104.37 120.53 C 107.27 121.27 109.13 117.88 111.36 116.52 C 111.31 111.30 111.40 106.07 111.29 100.85 C 105.65 103.75 101.15 108.32 96.35 112.37 M 75.54 107.04 C 75.28 111.06 75.29 115.09 75.52 119.11 C 77.76 117.09 81.04 115.61 82.51 113.03 C 80.89 110.53 77.81 109.02 75.54 107.04 M 32.88 114.58 C 36.10 117.68 39.46 120.69 43.31 122.98 C 43.40 120.15 43.42 117.31 43.42 114.48 C 39.91 114.38 36.39 114.38 32.88 114.58 M 234.09 116.18 C 227.96 121.66 220.97 126.21 215.62 132.53 C 222.04 132.63 228.64 133.41 234.97 132.32 C 240.33 127.89 244.20 121.51 244.78 114.50 C 241.21 114.64 236.84 113.14 234.09 116.18 M 12.06 114.49 C 12.18 121.70 16.47 128.00 21.74 132.59 C 28.25 132.93 34.79 132.94 41.29 132.44 C 34.66 126.00 27.19 120.49 20.23 114.41 C 17.51 114.42 14.78 114.44 12.06 114.49 M 213.34 114.38 C 213.33 117.27 213.36 120.16 213.49 123.05 C 217.13 120.51 220.53 117.65 223.67 114.51 C 220.23 114.37 216.78 114.34 213.34 114.38 M 80.03 127.29 C 82.51 129.03 84.80 131.03 87.17 132.91 C 88.17 133.88 89.88 134.23 91.03 133.32 C 93.66 131.41 96.14 129.27 98.47 127.02 C 98.46 126.81 98.44 126.39 98.43 126.19 C 95.66 123.17 92.29 120.78 89.07 118.27 C 86.12 121.29 81.49 123.08 80.03 127.29 M 102.16 134.09 C 93.42 141.83 84.06 148.85 75.34 156.61 C 75.30 159.47 75.35 162.33 75.51 165.19 C 87.52 155.86 99.08 145.96 110.73 136.19 C 109.13 134.84 107.62 133.36 105.84 132.27 C 104.32 132.06 103.23 133.24 102.16 134.09 M 146.27 136.14 C 149.44 140.16 153.95 142.84 157.66 146.33 C 165.56 152.64 172.91 159.74 181.49 165.13 C 181.57 162.54 181.90 159.89 181.40 157.33 C 180.53 155.69 179.01 154.54 177.65 153.34 C 169.86 146.83 161.96 140.45 154.18 133.92 C 153.21 133.32 152.37 132.16 151.12 132.28 C 149.27 133.23 147.70 134.65 146.27 136.14 M 179.65 134.58 C 177.92 136.05 176.18 137.50 174.40 138.91 C 174.38 139.34 174.33 140.19 174.31 140.62 C 176.60 142.51 178.98 144.31 181.44 145.98 C 181.63 142.08 181.60 138.17 181.52 134.27 C 181.05 134.35 180.12 134.51 179.65 134.58 M 75.55 133.87 C 75.29 137.93 75.28 142.00 75.55 146.06 C 78.07 144.07 80.55 142.03 82.99 139.94 C 80.62 137.79 78.11 135.79 75.55 133.87 M 14.11 148.42 C 17.22 155.17 23.70 159.25 29.08 164.02 C 33.70 167.81 38.11 171.93 43.30 174.97 C 43.54 170.00 43.53 165.02 43.38 160.05 C 35.97 153.96 28.55 147.88 21.32 141.58 C 18.92 139.23 15.32 139.87 12.28 139.67 C 12.18 142.69 12.67 145.74 14.11 148.42 M 31.92 140.37 C 35.47 143.60 38.90 147.12 43.33 149.15 C 43.42 146.19 43.44 143.23 43.46 140.28 C 39.61 140.15 35.77 140.15 31.92 140.37 M 213.38 139.79 C 213.29 143.02 213.30 146.26 213.42 149.49 C 217.55 146.88 221.27 143.71 224.86 140.42 C 221.07 139.77 217.22 139.65 213.38 139.79 M 213.34 159.94 C 213.23 164.99 213.18 170.05 213.47 175.10 C 221.33 169.52 228.55 163.13 235.95 156.98 C 241.03 152.80 243.96 146.56 244.80 140.11 C 242.50 139.84 240.20 139.68 237.89 139.55 C 229.69 146.33 221.54 153.17 213.34 159.94 M 79.92 171.95 C 78.51 173.15 77.01 174.28 75.85 175.74 C 74.44 177.90 74.77 180.58 74.68 183.03 C 74.74 188.04 74.52 193.06 74.70 198.08 C 74.60 200.55 76.06 202.68 77.74 204.34 C 81.27 207.77 85.25 210.72 89.51 213.17 C 89.78 200.45 89.53 187.73 89.59 175.01 C 89.27 172.70 91.57 171.44 92.95 170.01 C 102.49 162.06 112.07 154.16 121.61 146.22 C 121.58 145.90 121.52 145.26 121.49 144.94 C 119.98 143.75 118.48 142.54 116.98 141.33 C 104.65 151.56 92.42 161.92 79.92 171.95 M 135.54 146.25 C 145.96 155.42 156.90 164.01 167.49 172.99 C 167.60 186.09 167.39 199.19 167.56 212.28 C 173.12 210.33 177.03 205.66 181.55 202.12 C 181.80 193.56 181.70 185.00 181.55 176.45 C 168.49 165.13 154.97 154.33 141.80 143.14 C 139.71 140.85 135.25 143.69 135.54 146.25 M 119.83 158.49 C 125.68 158.92 131.56 158.82 137.42 158.41 C 134.39 156.08 131.83 152.46 128.13 151.37 C 124.92 153.15 122.40 155.91 119.83 158.49 M 98.37 175.59 C 98.41 190.80 98.13 206.02 98.48 221.22 C 102.72 225.31 107.20 229.45 112.46 232.25 C 112.93 215.93 112.61 199.59 112.54 183.27 C 109.20 181.87 109.31 178.39 109.36 175.33 C 115.20 174.51 121.11 174.84 127.00 174.79 C 133.57 174.86 140.17 174.50 146.71 175.34 C 146.64 178.11 146.62 181.06 144.60 183.21 C 144.20 199.53 144.00 215.88 144.60 232.20 C 149.77 228.64 154.99 224.82 159.12 220.10 C 159.85 214.05 158.41 208.01 158.85 201.96 C 159.62 193.46 159.30 184.87 158.38 176.40 C 155.00 172.20 150.63 168.68 146.00 165.94 C 134.27 165.39 122.51 166.45 110.78 165.65 C 106.53 168.82 102.58 172.36 98.37 175.59 M 121.38 182.28 C 121.43 201.82 121.02 221.36 121.42 240.90 C 123.89 242.43 125.92 245.33 128.92 245.64 C 131.38 244.18 133.44 242.15 135.59 240.30 C 135.79 220.95 135.54 201.60 135.49 182.25 C 130.78 182.15 126.08 182.17 121.38 182.28 Z" />
</g>
</svg>
