<?xml version="1.0" encoding="UTF-8" ?>
<!DOCTYPE svg PUBLIC "-//W3C//DTD SVG 1.1//EN" "http://www.w3.org/Graphics/SVG/1.1/DTD/svg11.dtd">
<svg width="110pt" height="57pt" viewBox="0 0 110 57" version="1.1" xmlns="http://www.w3.org/2000/svg">
<g id="#eb1a39ff">
<path fill="#eb1a39" opacity="1.00" d=" M 30.53 1.71 C 45.00 -0.45 59.69 1.30 74.05 3.44 C 83.57 5.14 93.41 7.01 101.72 12.22 C 107.60 15.93 109.30 23.47 109.02 29.99 C 108.74 35.35 107.55 41.49 102.90 44.82 C 96.81 49.22 89.43 51.28 82.24 53.12 C 67.17 56.76 51.50 57.22 36.08 56.14 C 26.84 55.21 17.01 53.44 9.62 47.39 C 4.36 42.79 0.81 36.06 0.76 29.00 C 0.64 20.97 4.91 13.05 11.59 8.62 C 17.17 4.71 23.88 2.79 30.53 1.71 M 20.46 21.04 C 20.35 25.49 26.48 28.65 24.21 33.17 C 22.14 36.29 18.19 30.18 16.40 33.92 C 17.90 39.69 27.40 39.78 28.85 33.86 C 30.92 28.54 25.54 24.85 24.48 20.08 C 25.12 19.84 26.40 19.36 27.04 19.12 C 28.15 19.79 29.27 20.46 30.38 21.13 C 31.12 19.90 32.05 18.53 30.59 17.39 C 27.53 13.70 20.29 16.10 20.46 21.04 M 36.53 33.41 C 35.64 29.97 37.48 26.55 36.82 23.12 C 34.75 21.44 33.26 24.16 32.95 25.92 C 32.19 29.28 30.58 33.73 33.58 36.44 C 35.63 38.24 38.31 36.86 40.39 35.90 C 41.72 36.23 43.51 37.11 44.53 35.65 C 44.64 32.06 44.69 28.46 45.38 24.91 C 46.02 23.03 45.11 21.08 42.92 21.19 C 39.78 24.68 40.73 30.48 36.53 33.41 M 47.66 30.98 C 47.07 33.18 48.01 35.85 50.24 36.70 C 52.16 37.64 53.97 36.02 55.67 35.36 C 54.62 38.14 54.85 42.14 51.92 43.79 C 49.54 44.05 48.13 41.61 46.53 40.29 C 43.05 43.53 48.01 49.01 51.91 48.24 C 55.62 48.13 57.47 44.40 58.22 41.25 C 59.30 36.55 60.09 31.76 60.28 26.93 C 60.64 24.08 57.96 21.11 55.01 21.93 C 50.91 22.96 48.44 27.07 47.66 30.98 M 69.21 22.18 C 67.44 23.33 65.91 24.83 63.96 25.70 C 63.12 29.43 62.42 33.31 63.10 37.13 C 63.59 37.28 64.59 37.58 65.08 37.73 C 68.20 34.21 66.64 28.26 70.69 25.20 C 72.23 25.83 74.17 26.92 75.67 25.56 C 75.79 22.45 71.67 20.97 69.21 22.18 M 86.73 23.57 C 84.73 26.91 84.28 31.54 80.27 33.26 C 80.51 31.13 80.96 29.02 81.27 26.90 C 81.88 25.31 80.85 23.28 78.94 23.76 C 76.88 25.58 76.48 28.49 76.01 31.05 C 75.77 33.16 75.47 36.14 77.73 37.30 C 80.42 38.58 83.21 36.90 85.12 35.03 C 85.77 37.35 87.86 37.06 89.55 36.16 C 89.28 32.42 89.91 28.71 89.90 24.99 C 89.66 23.52 87.95 22.98 86.73 23.57 Z" />
<path fill="#eb1a39" opacity="1.00" d=" M 51.67 29.48 C 52.34 27.50 54.10 26.23 55.67 24.99 C 55.53 27.76 55.64 31.38 52.85 32.96 C 50.76 33.11 51.18 30.79 51.67 29.48 Z" />
</g>
<g id="#fffffeff">
<path fill="#fffffe" opacity="1.00" d=" M 20.46 21.04 C 20.29 16.10 27.53 13.70 30.59 17.39 C 32.05 18.53 31.12 19.90 30.38 21.13 C 29.27 20.46 28.15 19.79 27.04 19.12 C 26.40 19.36 25.12 19.84 24.48 20.08 C 25.54 24.85 30.92 28.54 28.85 33.86 C 27.40 39.78 17.90 39.69 16.40 33.92 C 18.19 30.18 22.14 36.29 24.21 33.17 C 26.48 28.65 20.35 25.49 20.46 21.04 Z" />
<path fill="#fffffe" opacity="1.00" d=" M 36.53 33.41 C 40.73 30.48 39.78 24.68 42.92 21.19 C 45.11 21.08 46.02 23.03 45.38 24.91 C 44.69 28.46 44.64 32.06 44.53 35.65 C 43.51 37.11 41.72 36.23 40.39 35.90 C 38.31 36.86 35.63 38.24 33.58 36.44 C 30.58 33.73 32.19 29.28 32.95 25.92 C 33.26 24.16 34.75 21.44 36.82 23.12 C 37.48 26.55 35.64 29.97 36.53 33.41 Z" />
<path fill="#fffffe" opacity="1.00" d=" M 47.66 30.98 C 48.44 27.07 50.91 22.96 55.01 21.93 C 57.96 21.11 60.64 24.08 60.28 26.93 C 60.09 31.76 59.30 36.55 58.22 41.25 C 57.47 44.40 55.62 48.13 51.91 48.24 C 48.01 49.01 43.05 43.53 46.53 40.29 C 48.13 41.61 49.54 44.05 51.92 43.79 C 54.85 42.14 54.62 38.14 55.67 35.36 C 53.97 36.02 52.16 37.64 50.24 36.70 C 48.01 35.85 47.07 33.18 47.66 30.98 M 51.67 29.48 C 51.18 30.79 50.76 33.11 52.85 32.96 C 55.64 31.38 55.53 27.76 55.67 24.99 C 54.10 26.23 52.34 27.50 51.67 29.48 Z" />
<path fill="#fffffe" opacity="1.00" d=" M 69.21 22.18 C 71.67 20.97 75.79 22.45 75.67 25.56 C 74.17 26.92 72.23 25.83 70.69 25.20 C 66.64 28.26 68.20 34.21 65.08 37.73 C 64.59 37.58 63.59 37.28 63.10 37.13 C 62.42 33.31 63.12 29.43 63.96 25.70 C 65.91 24.83 67.44 23.33 69.21 22.18 Z" />
<path fill="#fffffe" opacity="1.00" d=" M 86.73 23.57 C 87.95 22.98 89.66 23.52 89.90 24.99 C 89.91 28.71 89.28 32.42 89.55 36.16 C 87.86 37.06 85.77 37.35 85.12 35.03 C 83.21 36.90 80.42 38.58 77.73 37.30 C 75.47 36.14 75.77 33.16 76.01 31.05 C 76.48 28.49 76.88 25.58 78.94 23.76 C 80.85 23.28 81.88 25.31 81.27 26.90 C 80.96 29.02 80.51 31.13 80.27 33.26 C 84.28 31.54 84.73 26.91 86.73 23.57 Z" />
</g>
</svg>
